{"glyphs":{"0":{"ha":847,"x_min":0,"x_max":0,"o":"m 417 -14 b 69 486 222 -14 69 111 b 417 986 69 861 222 986 l 431 986 b 778 486 625 986 778 861 b 431 -14 778 111 625 -14 m 417 861 b 208 486 292 861 208 764 b 417 111 208 208 292 111 l 431 111 b 639 486 556 111 639 208 b 431 861 639 764 556 861 "},"1":{"ha":847,"x_min":0,"x_max":0,"o":"m 125 111 l 139 125 l 403 125 l 417 139 l 417 792 l 403 792 l 222 611 l 194 611 l 181 625 l 181 736 l 403 958 l 431 972 l 542 972 l 556 958 l 556 139 l 569 125 l 792 125 l 806 111 l 806 14 l 792 0 l 139 0 l 125 14 "},"2":{"ha":847,"x_min":0,"x_max":0,"o":"m 750 0 l 125 0 l 111 14 l 111 125 l 125 153 l 403 403 b 597 694 542 528 597 583 b 431 861 597 778 556 861 b 250 681 306 861 250 792 l 236 667 l 125 667 l 111 681 b 431 986 111 861 222 986 b 736 708 653 986 736 833 b 583 389 736 625 722 514 l 306 139 l 306 125 l 750 125 l 764 111 l 764 14 "},"3":{"ha":847,"x_min":0,"x_max":0,"o":"m 750 319 b 403 -14 750 111 611 -14 b 83 278 208 -14 83 111 l 97 292 l 208 292 l 222 278 b 403 111 222 194 278 111 b 611 319 542 111 611 194 b 431 514 611 444 542 514 b 319 472 361 514 319 472 l 278 472 l 264 486 l 264 583 l 528 833 l 528 847 l 139 847 l 125 861 l 125 958 l 139 972 l 681 972 l 694 958 l 694 847 l 681 819 l 472 625 l 472 611 b 750 319 583 625 750 556 "},"4":{"ha":847,"x_min":0,"x_max":0,"o":"m 667 0 l 556 0 l 542 14 l 542 264 l 528 278 l 69 278 l 56 292 l 56 403 l 69 431 l 514 958 l 542 972 l 667 972 l 681 958 l 681 14 m 542 792 l 528 792 l 208 417 l 208 403 l 528 403 l 542 417 "},"5":{"ha":847,"x_min":0,"x_max":0,"o":"m 764 347 b 431 -14 764 97 639 -14 b 111 264 222 -14 125 97 l 125 278 l 236 278 l 250 264 b 431 111 264 181 292 111 b 625 333 569 111 625 194 b 444 542 625 458 583 542 b 264 431 306 542 264 431 l 236 417 l 139 431 l 125 444 l 153 958 l 167 972 l 708 972 l 722 958 l 722 861 l 708 847 l 292 847 l 278 833 l 264 583 l 278 583 b 472 667 278 583 333 667 b 764 347 681 667 764 514 "},"6":{"ha":847,"x_min":0,"x_max":0,"o":"m 97 472 b 458 986 97 861 236 986 b 750 750 625 986 736 903 l 736 736 l 625 736 l 611 750 b 444 861 597 833 542 861 b 250 569 250 861 250 639 l 264 569 b 458 639 264 569 319 639 b 764 319 653 639 764 514 b 444 -14 764 111 639 -14 b 97 472 236 -14 97 97 m 625 306 b 444 514 625 431 583 514 b 250 319 319 514 250 444 b 431 111 250 181 333 111 b 625 306 556 111 625 181 "},"7":{"ha":847,"x_min":0,"x_max":0,"o":"m 333 14 l 319 0 l 250 0 l 236 14 l 236 125 l 583 833 l 583 847 l 139 847 l 125 861 l 125 958 l 139 972 l 722 972 l 736 958 l 736 847 "},"8":{"ha":847,"x_min":0,"x_max":0,"o":"m 417 -14 b 83 278 194 -14 83 125 b 222 514 83 417 167 486 l 222 528 b 111 722 181 556 111 611 b 417 986 111 861 208 986 l 431 986 b 736 722 639 986 736 861 b 625 528 736 611 667 556 l 625 514 b 764 278 681 486 764 417 b 431 -14 764 125 653 -14 m 431 569 b 597 722 542 569 597 639 b 431 861 597 792 556 861 l 417 861 b 250 722 292 861 250 792 b 417 569 250 639 306 569 m 431 111 b 625 278 569 111 625 194 b 431 458 625 375 569 458 l 417 458 b 222 278 278 458 222 375 b 417 111 222 194 278 111 "},"9":{"ha":847,"x_min":0,"x_max":0,"o":"m 750 514 b 389 -14 750 125 625 -14 b 111 222 236 -14 125 69 l 125 236 l 236 236 l 250 222 b 403 111 264 139 319 111 b 597 417 597 111 597 333 l 583 417 b 389 347 583 417 528 347 b 83 667 208 347 83 472 b 403 986 83 875 222 986 b 750 514 625 986 750 875 m 222 667 b 403 472 222 542 292 472 b 597 667 528 472 597 542 b 403 861 597 806 514 861 b 222 667 292 861 222 792 "},"\u0000":{"ha":0,"x_min":0,"x_max":0,"o":""},"\r":{"ha":0,"x_min":0,"x_max":0,"o":""}," ":{"ha":847,"x_min":0,"x_max":0,"o":""},"!":{"ha":847,"x_min":0,"x_max":0,"o":"m 458 347 l 444 333 l 389 333 l 375 347 l 347 667 l 347 958 l 361 972 l 472 972 l 486 958 l 486 667 m 514 0 l 319 0 l 306 14 l 306 208 l 319 222 l 514 222 l 528 208 l 528 14 "},"\"":{"ha":847,"x_min":0,"x_max":0,"o":"m 625 542 l 514 542 l 500 556 l 500 958 l 514 972 l 625 972 l 639 958 l 639 556 m 333 542 l 222 542 l 208 556 l 208 958 l 222 972 l 333 972 l 347 958 l 347 556 "},"#":{"ha":847,"x_min":0,"x_max":0,"o":"m 431 264 l 417 278 l 306 278 l 292 264 l 222 14 l 208 0 l 139 0 l 125 14 l 125 111 l 167 264 l 153 278 l 56 278 l 42 292 l 42 375 l 56 389 l 194 389 l 208 403 l 250 569 l 236 583 l 125 583 l 111 597 l 111 681 l 125 694 l 278 694 l 292 708 l 361 958 l 375 972 l 444 972 l 458 958 l 458 861 l 417 708 l 431 694 l 542 694 l 556 708 l 625 958 l 639 972 l 708 972 l 722 958 l 722 861 l 681 708 l 694 694 l 792 694 l 806 681 l 806 597 l 792 583 l 653 583 l 639 569 l 597 403 l 611 389 l 722 389 l 736 375 l 736 292 l 722 278 l 569 278 l 556 264 l 486 14 l 472 0 l 403 0 l 389 14 l 389 111 m 458 389 l 472 403 l 514 569 l 500 583 l 389 583 l 375 569 l 333 403 l 347 389 "},"$":{"ha":847,"x_min":0,"x_max":0,"o":"m 472 -125 l 389 -125 l 375 -111 l 375 -28 l 361 -14 b 69 306 153 14 69 125 l 83 319 l 194 319 l 208 306 b 361 111 208 208 236 125 l 375 125 l 375 431 l 361 444 b 83 722 181 486 83 583 b 361 986 83 819 125 958 l 375 1000 l 375 1083 l 389 1097 l 472 1097 l 486 1083 l 486 1000 l 500 986 b 764 694 667 972 764 847 l 750 681 l 639 681 l 625 694 b 500 861 625 778 583 847 l 486 847 l 486 569 l 500 556 b 792 264 681 514 792 431 b 500 -14 792 167 736 14 l 486 -28 l 486 -111 m 653 264 b 500 417 653 347 611 389 l 486 403 l 486 125 l 500 111 b 653 264 597 125 653 181 m 222 722 b 361 583 222 653 264 611 l 375 597 l 375 847 l 361 861 b 222 722 250 847 222 778 "},"%":{"ha":847,"x_min":0,"x_max":0,"o":"m 222 514 b 42 750 97 514 42 597 b 222 986 42 903 97 986 b 403 750 347 986 403 903 b 222 514 403 597 347 514 m 167 750 b 222 625 167 653 181 625 b 278 750 264 625 278 653 b 222 875 278 847 264 875 b 167 750 181 875 167 847 m 181 167 l 153 153 l 139 153 l 125 167 l 125 264 l 667 806 l 694 819 l 708 819 l 722 806 l 722 708 m 625 -14 b 444 222 500 -14 444 69 b 625 458 444 375 500 458 b 806 222 750 458 806 375 b 625 -14 806 69 750 -14 m 569 222 b 625 97 569 125 583 97 b 681 222 667 97 681 125 b 625 347 681 319 667 347 b 569 222 583 347 569 319 "},"&":{"ha":847,"x_min":0,"x_max":0,"o":"m 625 333 b 639 528 639 375 639 417 l 653 542 l 764 542 l 778 528 b 736 236 778 361 764 292 l 736 208 l 833 111 l 833 14 l 819 0 l 764 0 l 736 14 l 653 97 l 639 97 b 347 -14 583 42 500 -14 b 28 278 111 -14 28 153 b 194 542 28 431 125 500 l 194 556 b 111 764 153 597 111 667 b 347 986 111 875 181 986 b 569 764 500 986 569 875 b 431 528 569 667 514 583 l 431 514 l 611 333 m 431 764 b 347 861 431 819 403 861 b 250 764 278 861 250 819 b 333 611 250 708 278 667 l 347 611 b 431 764 389 639 431 681 m 542 208 l 292 458 l 278 458 b 167 278 208 417 167 361 b 347 111 167 181 236 111 b 542 194 472 111 528 167 "},"'":{"ha":847,"x_min":0,"x_max":0,"o":"m 472 542 l 361 542 l 347 556 l 347 958 l 361 972 l 472 972 l 486 958 l 486 556 "},"(":{"ha":847,"x_min":0,"x_max":0,"o":"m 333 347 b 653 -167 333 97 347 83 l 653 -264 l 639 -278 l 611 -278 l 583 -264 b 194 347 208 42 194 56 b 583 958 194 639 208 653 l 611 972 l 639 972 l 653 958 l 653 861 b 333 347 347 611 333 597 "},")":{"ha":847,"x_min":0,"x_max":0,"o":"m 514 347 b 194 861 514 597 500 611 l 194 958 l 208 972 l 236 972 l 264 958 b 653 347 639 653 653 639 b 264 -264 653 56 639 28 l 236 -278 l 208 -278 l 194 -264 l 194 -167 b 514 347 500 83 514 97 "},"*":{"ha":847,"x_min":0,"x_max":0,"o":"m 417 375 l 403 389 l 403 611 l 389 611 l 236 458 l 222 458 l 208 472 l 208 486 l 361 639 l 361 653 l 139 653 l 125 667 l 125 681 l 139 694 l 361 694 l 361 708 l 208 861 l 208 875 l 222 889 l 236 889 l 389 736 l 403 736 l 403 958 l 417 972 l 431 972 l 444 958 l 444 736 l 458 736 l 611 889 l 625 889 l 639 875 l 639 861 l 486 708 l 486 694 l 708 694 l 722 681 l 722 667 l 708 653 l 486 653 l 486 639 l 639 486 l 639 472 l 625 458 l 611 458 l 458 611 l 444 611 l 444 389 l 431 375 "},"+":{"ha":847,"x_min":0,"x_max":0,"o":"m 736 292 l 500 292 l 486 278 l 486 42 l 472 28 l 375 28 l 361 42 l 361 278 l 347 292 l 111 292 l 97 306 l 97 403 l 111 417 l 347 417 l 361 431 l 361 667 l 375 681 l 472 681 l 486 667 l 486 431 l 500 417 l 736 417 l 750 403 l 750 306 "},",":{"ha":847,"x_min":0,"x_max":0,"o":"m 514 -42 l 403 -181 l 375 -194 l 292 -194 l 292 -181 l 389 -28 l 389 -14 l 375 0 l 319 0 l 306 14 l 306 208 l 319 222 l 514 222 l 528 208 l 528 0 "},"-":{"ha":847,"x_min":0,"x_max":0,"o":"m 681 292 l 167 292 l 153 306 l 153 403 l 167 417 l 681 417 l 694 403 l 694 306 "},".":{"ha":847,"x_min":0,"x_max":0,"o":"m 514 0 l 319 0 l 306 14 l 306 208 l 319 222 l 514 222 l 528 208 l 528 14 "},"/":{"ha":847,"x_min":0,"x_max":0,"o":"m 139 14 l 111 0 l 69 0 l 56 14 l 56 111 l 708 958 l 736 972 l 778 972 l 792 958 l 792 861 "},":":{"ha":847,"x_min":0,"x_max":0,"o":"m 514 472 l 319 472 l 306 486 l 306 681 l 319 694 l 514 694 l 528 681 l 528 486 m 514 0 l 319 0 l 306 14 l 306 208 l 319 222 l 514 222 l 528 208 l 528 14 "},";":{"ha":847,"x_min":0,"x_max":0,"o":"m 514 -42 l 403 -181 l 375 -194 l 292 -194 l 292 -181 l 389 -28 l 389 -14 l 375 0 l 319 0 l 306 14 l 306 208 l 319 222 l 514 222 l 528 208 l 528 0 m 514 472 l 319 472 l 306 486 l 306 681 l 319 694 l 514 694 l 528 681 l 528 486 "},"<":{"ha":847,"x_min":0,"x_max":0,"o":"m 125 417 l 694 694 l 722 694 l 736 681 l 736 597 l 722 569 l 264 361 l 264 333 l 722 125 l 736 97 l 736 14 l 722 0 l 694 0 l 125 278 l 111 306 l 111 389 "},"=":{"ha":847,"x_min":0,"x_max":0,"o":"m 722 417 l 125 417 l 111 431 l 111 528 l 125 542 l 722 542 l 736 528 l 736 431 m 722 153 l 125 153 l 111 167 l 111 264 l 125 278 l 722 278 l 736 264 l 736 167 "},">":{"ha":847,"x_min":0,"x_max":0,"o":"m 736 389 l 736 306 l 722 278 l 153 0 l 125 0 l 111 14 l 111 97 l 125 125 l 583 333 l 583 361 l 125 569 l 111 597 l 111 681 l 125 694 l 153 694 l 722 417 "},"?":{"ha":847,"x_min":0,"x_max":0,"o":"m 722 722 b 583 486 722 597 667 542 b 472 333 500 431 472 403 l 458 319 l 347 319 l 333 333 b 444 542 333 431 361 486 b 583 722 528 597 583 639 b 417 861 583 792 542 861 b 250 681 292 861 250 792 l 236 667 l 125 667 l 111 681 b 417 986 111 861 208 986 b 722 722 597 986 722 889 m 500 0 l 306 0 l 292 14 l 292 208 l 306 222 l 500 222 l 514 208 l 514 14 "},"@":{"ha":847,"x_min":0,"x_max":0,"o":"m 528 181 b 639 347 597 181 639 222 b 528 514 639 472 597 514 b 417 347 458 514 417 472 b 528 181 417 222 458 181 m 639 583 b 431 792 639 694 583 792 b 181 347 236 792 181 667 b 431 -97 181 28 236 -97 b 597 -56 486 -97 556 -83 l 625 -56 l 639 -69 l 639 -167 b 431 -222 597 -194 514 -222 b 42 347 83 -222 42 69 b 431 917 42 625 83 917 b 778 583 694 917 778 722 l 778 83 l 764 69 l 667 69 l 653 83 l 639 111 l 625 111 b 500 56 625 111 597 56 b 278 347 361 56 278 167 b 500 639 278 528 361 639 b 625 583 597 639 625 583 "},"A":{"ha":847,"x_min":0,"x_max":0,"o":"m 639 181 l 611 194 l 236 194 l 208 181 l 153 14 l 139 0 l 56 0 l 42 14 l 42 111 l 347 958 l 361 972 l 486 972 l 500 958 l 806 111 l 806 14 l 792 0 l 708 0 l 694 14 m 264 333 l 278 319 l 569 319 l 583 333 l 431 764 l 417 764 "},"B":{"ha":847,"x_min":0,"x_max":0,"o":"m 792 278 b 500 0 792 69 653 0 l 111 0 l 97 14 l 97 958 l 111 972 l 472 972 b 764 708 625 972 764 903 b 639 514 764 611 708 542 l 639 500 b 792 278 722 472 792 403 m 625 708 b 444 847 625 819 569 847 l 250 847 l 236 833 l 236 583 l 250 569 l 458 569 b 625 708 569 569 625 597 m 653 278 b 458 444 653 403 597 444 l 250 444 l 236 431 l 236 139 l 250 125 l 486 125 b 653 278 597 125 653 167 "},"C":{"ha":847,"x_min":0,"x_max":0,"o":"m 444 -14 b 56 486 194 -14 56 153 b 444 986 56 819 194 986 b 792 694 653 986 778 875 l 778 681 l 667 681 l 653 694 b 444 861 639 792 583 861 b 194 486 278 861 194 736 b 444 111 194 236 278 111 b 653 292 597 111 639 194 l 667 306 l 778 306 l 792 292 b 444 -14 778 111 667 -14 "},"D":{"ha":847,"x_min":0,"x_max":0,"o":"m 778 486 b 347 0 778 194 694 0 l 111 0 l 97 14 l 97 958 l 111 972 l 347 972 b 778 486 694 972 778 778 m 639 486 b 333 847 639 722 597 847 l 250 847 l 236 833 l 236 139 l 250 125 l 333 125 b 639 486 597 125 639 250 "},"E":{"ha":847,"x_min":0,"x_max":0,"o":"m 736 0 l 111 0 l 97 14 l 97 958 l 111 972 l 736 972 l 750 958 l 750 861 l 736 847 l 250 847 l 236 833 l 236 569 l 250 556 l 708 556 l 722 542 l 722 444 l 708 431 l 250 431 l 236 417 l 236 139 l 250 125 l 736 125 l 750 111 l 750 14 "},"F":{"ha":847,"x_min":0,"x_max":0,"o":"m 736 847 l 250 847 l 236 833 l 236 556 l 250 542 l 708 542 l 722 528 l 722 431 l 708 417 l 250 417 l 236 403 l 236 14 l 222 0 l 111 0 l 97 14 l 97 958 l 111 972 l 736 972 l 750 958 l 750 861 "},"G":{"ha":847,"x_min":0,"x_max":0,"o":"m 639 375 l 625 389 l 403 389 l 389 403 l 389 500 l 403 514 l 764 514 l 778 500 l 778 14 l 764 0 l 681 0 l 667 14 l 653 97 l 639 97 b 431 -14 611 42 542 -14 b 56 486 194 -14 56 139 b 444 986 56 833 194 986 b 778 694 694 986 764 833 l 764 681 l 653 681 l 639 694 b 444 861 625 792 583 861 b 194 486 264 861 194 750 b 431 111 194 222 278 111 b 639 333 556 111 639 194 "},"H":{"ha":847,"x_min":0,"x_max":0,"o":"m 736 0 l 625 0 l 611 14 l 611 417 l 597 431 l 250 431 l 236 417 l 236 14 l 222 0 l 111 0 l 97 14 l 97 958 l 111 972 l 222 972 l 236 958 l 236 569 l 250 556 l 597 556 l 611 569 l 611 958 l 625 972 l 736 972 l 750 958 l 750 14 "},"I":{"ha":847,"x_min":0,"x_max":0,"o":"m 694 0 l 139 0 l 125 14 l 125 111 l 139 125 l 333 125 l 347 139 l 347 833 l 333 847 l 153 847 l 139 861 l 139 958 l 153 972 l 681 972 l 694 958 l 694 861 l 681 847 l 500 847 l 486 833 l 486 139 l 500 125 l 694 125 l 708 111 l 708 14 "},"J":{"ha":847,"x_min":0,"x_max":0,"o":"m 722 292 b 389 -14 722 125 611 -14 b 69 278 139 -14 69 167 l 69 306 l 83 319 l 194 319 l 208 306 l 208 278 b 389 111 208 208 250 111 b 583 292 500 111 583 167 l 583 833 l 569 847 l 139 847 l 125 861 l 125 958 l 139 972 l 708 972 l 722 958 "},"K":{"ha":847,"x_min":0,"x_max":0,"o":"m 792 0 l 736 0 l 708 14 l 375 444 l 361 444 l 250 333 l 236 306 l 236 14 l 222 0 l 111 0 l 97 14 l 97 958 l 111 972 l 222 972 l 236 958 l 236 514 l 250 514 l 694 958 l 722 972 l 764 972 l 778 958 l 778 861 l 472 556 l 472 542 l 806 111 l 806 14 "},"L":{"ha":847,"x_min":0,"x_max":0,"o":"m 778 0 l 139 0 l 125 14 l 125 958 l 139 972 l 250 972 l 264 958 l 264 139 l 278 125 l 778 125 l 792 111 l 792 14 "},"M":{"ha":847,"x_min":0,"x_max":0,"o":"m 750 0 l 639 0 l 625 14 l 625 611 l 611 611 l 486 14 l 472 0 l 375 0 l 361 14 l 236 611 l 222 611 l 222 14 l 208 0 l 97 0 l 83 14 l 83 958 l 97 972 l 250 972 l 264 958 l 417 236 l 431 236 l 583 958 l 597 972 l 750 972 l 764 958 l 764 14 "},"N":{"ha":847,"x_min":0,"x_max":0,"o":"m 736 0 l 611 0 l 583 14 l 250 694 l 236 694 l 236 14 l 222 0 l 111 0 l 97 14 l 97 958 l 111 972 l 236 972 l 264 958 l 597 278 l 611 278 l 611 958 l 625 972 l 736 972 l 750 958 l 750 14 "},"O":{"ha":847,"x_min":0,"x_max":0,"o":"m 417 -14 b 56 486 181 -14 56 153 b 417 986 56 819 181 986 l 431 986 b 792 486 667 986 792 819 b 431 -14 792 153 667 -14 m 431 111 b 653 486 583 111 653 236 b 431 861 653 736 583 861 l 417 861 b 194 486 264 861 194 736 b 417 111 194 236 264 111 "},"P":{"ha":847,"x_min":0,"x_max":0,"o":"m 806 694 b 486 417 806 500 667 417 l 250 417 l 236 403 l 236 14 l 222 0 l 111 0 l 97 14 l 97 958 l 111 972 l 486 972 b 806 694 681 972 806 889 m 667 694 b 486 847 667 806 611 847 l 250 847 l 236 833 l 236 556 l 250 542 l 486 542 b 667 694 611 542 667 583 "},"Q":{"ha":847,"x_min":0,"x_max":0,"o":"m 431 111 b 542 139 486 111 528 125 l 542 153 l 444 250 l 347 250 l 333 264 l 333 347 l 347 361 l 514 361 l 611 264 l 625 264 b 653 486 639 306 653 375 b 431 861 653 736 583 861 l 417 861 b 194 486 264 861 194 736 b 417 111 194 236 264 111 m 417 -14 b 56 486 181 -14 56 153 b 417 986 56 819 181 986 l 431 986 b 792 486 667 986 792 819 b 722 167 792 319 764 236 l 722 153 l 778 97 l 778 14 l 764 0 l 694 0 l 653 42 l 625 42 b 431 -14 583 14 528 -14 "},"R":{"ha":847,"x_min":0,"x_max":0,"o":"m 653 694 b 472 847 653 806 597 847 l 250 847 l 236 833 l 236 556 l 250 542 l 472 542 b 653 694 597 542 653 583 m 792 694 b 583 431 792 542 708 458 l 583 417 l 778 111 l 778 14 l 764 0 l 708 0 l 681 14 l 431 403 l 403 417 l 250 417 l 236 403 l 236 14 l 222 0 l 111 0 l 97 14 l 97 958 l 111 972 l 472 972 b 792 694 667 972 792 889 "},"S":{"ha":847,"x_min":0,"x_max":0,"o":"m 806 264 b 431 -14 806 111 694 -14 b 42 306 194 -14 42 97 l 56 319 l 167 319 l 181 306 b 444 111 181 167 278 111 b 667 264 569 111 667 153 b 389 444 667 389 583 417 b 69 722 194 472 69 556 b 417 986 69 847 167 986 b 778 694 625 986 778 903 l 764 681 l 653 681 l 639 694 b 403 861 639 806 583 861 b 208 722 278 861 208 806 b 472 556 208 611 278 583 b 806 264 667 528 806 458 "},"T":{"ha":847,"x_min":0,"x_max":0,"o":"m 778 847 l 500 847 l 486 833 l 486 14 l 472 0 l 361 0 l 347 14 l 347 833 l 333 847 l 56 847 l 42 861 l 42 958 l 56 972 l 778 972 l 792 958 l 792 861 "},"U":{"ha":847,"x_min":0,"x_max":0,"o":"m 417 -14 b 83 347 181 -14 83 125 l 83 958 l 97 972 l 208 972 l 222 958 l 222 347 b 417 111 222 208 264 111 l 431 111 b 625 347 583 111 625 208 l 625 958 l 639 972 l 750 972 l 764 958 l 764 347 b 431 -14 764 125 667 -14 "},"V":{"ha":847,"x_min":0,"x_max":0,"o":"m 500 14 l 486 0 l 361 0 l 347 14 l 42 861 l 42 958 l 56 972 l 139 972 l 153 958 l 417 194 l 431 194 l 694 958 l 708 972 l 792 972 l 806 958 l 806 861 "},"W":{"ha":847,"x_min":0,"x_max":0,"o":"m 667 14 l 653 0 l 528 0 l 514 14 l 431 667 l 417 667 l 333 14 l 319 0 l 194 0 l 181 14 l 28 861 l 28 958 l 42 972 l 139 972 l 153 958 l 250 306 l 264 306 l 347 958 l 361 972 l 486 972 l 500 958 l 583 306 l 597 306 l 694 958 l 708 972 l 806 972 l 819 958 l 819 861 "},"X":{"ha":847,"x_min":0,"x_max":0,"o":"m 778 0 l 722 0 l 694 14 l 431 403 l 417 403 l 153 14 l 125 0 l 69 0 l 56 14 l 56 111 l 333 500 l 333 514 l 69 861 l 69 958 l 83 972 l 139 972 l 167 958 l 417 611 l 431 611 l 681 958 l 708 972 l 764 972 l 778 958 l 778 861 l 514 514 l 514 500 l 792 111 l 792 14 "},"Y":{"ha":847,"x_min":0,"x_max":0,"o":"m 486 375 l 486 14 l 472 0 l 361 0 l 347 14 l 347 375 l 56 861 l 56 958 l 69 972 l 125 972 l 153 958 l 403 528 l 431 528 l 681 958 l 708 972 l 764 972 l 778 958 l 778 861 "},"Z":{"ha":847,"x_min":0,"x_max":0,"o":"m 764 0 l 83 0 l 69 14 l 69 125 l 83 153 l 583 833 l 583 847 l 97 847 l 83 861 l 83 958 l 97 972 l 736 972 l 750 958 l 750 847 l 736 819 l 236 139 l 236 125 l 764 125 l 778 111 l 778 14 "},"[":{"ha":847,"x_min":0,"x_max":0,"o":"m 625 -278 l 250 -278 l 236 -264 l 236 958 l 250 972 l 625 972 l 639 958 l 639 861 l 625 847 l 389 847 l 375 833 l 375 -139 l 389 -153 l 625 -153 l 639 -167 l 639 -264 "},"\\":{"ha":847,"x_min":0,"x_max":0,"o":"m 56 861 l 56 958 l 69 972 l 125 972 l 153 958 l 792 111 l 792 14 l 778 0 l 722 0 l 694 14 "},"]":{"ha":847,"x_min":0,"x_max":0,"o":"m 208 -264 l 208 -167 l 222 -153 l 458 -153 l 472 -139 l 472 833 l 458 847 l 222 847 l 208 861 l 208 958 l 222 972 l 597 972 l 611 958 l 611 -264 l 597 -278 l 222 -278 "},"^":{"ha":847,"x_min":0,"x_max":0,"o":"m 708 319 l 653 319 l 625 333 l 431 778 l 417 778 l 222 333 l 194 319 l 139 319 l 125 333 l 125 444 l 361 958 l 375 972 l 472 972 l 486 958 l 722 444 l 722 333 "},"_":{"ha":847,"x_min":0,"x_max":0,"o":"m 764 -125 l 83 -125 l 69 -111 l 69 -14 l 83 0 l 764 0 l 778 -14 l 778 -111 "},"`":{"ha":847,"x_min":0,"x_max":0,"o":"m 556 778 l 458 778 l 431 792 l 278 931 l 278 958 l 292 972 l 431 972 l 458 958 l 569 819 l 569 792 "},"a":{"ha":847,"x_min":0,"x_max":0,"o":"m 708 0 l 611 0 l 597 14 l 583 69 l 569 69 b 361 -14 569 69 514 -14 b 111 208 208 -14 111 56 b 431 431 111 375 250 431 b 569 417 514 431 569 417 l 583 431 l 583 458 b 431 583 583 556 528 583 b 278 500 333 583 278 556 l 264 486 l 153 486 l 139 500 b 431 708 139 611 222 708 b 722 403 639 708 722 611 l 722 14 m 583 292 l 569 306 b 444 319 569 306 528 319 b 250 208 319 319 250 292 b 389 111 250 125 306 111 b 583 250 500 111 583 181 "},"b":{"ha":847,"x_min":0,"x_max":0,"o":"m 778 347 b 472 -14 778 139 667 -14 b 278 69 333 -14 278 69 l 264 69 l 250 14 l 236 0 l 139 0 l 125 14 l 125 958 l 139 972 l 250 972 l 264 958 l 264 625 l 278 625 b 472 708 278 625 333 708 b 778 347 667 708 778 569 m 639 347 b 458 583 639 500 569 583 b 264 347 347 583 264 514 b 458 111 264 181 347 111 b 639 347 569 111 639 194 "},"c":{"ha":847,"x_min":0,"x_max":0,"o":"m 750 236 b 444 -14 736 56 583 -14 b 97 347 222 -14 97 125 b 444 708 97 569 222 708 b 750 458 583 708 736 639 l 736 444 l 625 444 l 611 458 b 444 583 597 542 542 583 b 236 347 306 583 236 500 b 444 111 236 194 306 111 b 611 236 542 111 597 153 l 625 250 l 736 250 l 750 236 "},"d":{"ha":847,"x_min":0,"x_max":0,"o":"m 708 0 l 611 0 l 597 14 l 583 69 l 569 69 b 375 -14 569 69 514 -14 b 69 347 181 -14 69 139 b 375 708 69 556 181 708 b 569 625 514 708 569 625 l 583 625 l 583 958 l 597 972 l 708 972 l 722 958 l 722 14 m 583 347 b 389 583 583 514 500 583 b 208 347 278 583 208 500 b 389 111 208 194 278 111 b 583 347 500 111 583 181 "},"e":{"ha":847,"x_min":0,"x_max":0,"o":"m 597 417 b 417 583 597 458 583 583 b 236 417 250 583 236 458 l 250 403 l 583 403 m 431 -14 b 83 347 194 -14 83 139 b 417 708 83 542 181 708 b 750 347 653 708 750 542 l 750 306 l 736 292 l 250 292 l 236 278 b 431 111 236 250 250 111 b 583 194 500 111 556 125 l 597 208 l 708 208 l 722 194 b 431 -14 708 83 611 -14 "},"f":{"ha":847,"x_min":0,"x_max":0,"o":"m 736 569 l 458 569 l 444 556 l 444 14 l 431 0 l 319 0 l 306 14 l 306 556 l 292 569 l 111 569 l 97 583 l 97 681 l 111 694 l 292 694 l 306 708 l 306 792 b 500 972 306 917 403 972 l 667 972 l 681 958 l 681 861 l 667 847 l 500 847 b 444 792 472 847 444 833 l 444 708 l 458 694 l 736 694 l 750 681 l 750 583 "},"g":{"ha":847,"x_min":0,"x_max":0,"o":"m 417 -167 b 597 69 542 -167 597 -83 l 583 69 b 389 -14 583 69 528 -14 b 83 347 194 -14 83 139 b 389 708 83 556 194 708 b 583 625 528 708 583 625 l 597 625 l 611 681 l 625 694 l 722 694 l 736 681 l 736 69 b 417 -292 736 -208 583 -292 b 125 -97 250 -292 139 -208 l 139 -83 l 250 -83 l 264 -97 b 417 -167 292 -153 347 -167 m 597 347 b 403 583 597 514 514 583 b 222 347 292 583 222 500 b 403 111 222 194 292 111 b 597 347 514 111 597 181 "},"h":{"ha":847,"x_min":0,"x_max":0,"o":"m 722 0 l 611 0 l 597 14 l 597 417 b 444 583 597 500 556 583 b 250 361 333 583 250 528 l 250 14 l 236 0 l 125 0 l 111 14 l 111 958 l 125 972 l 236 972 l 250 958 l 250 625 l 264 625 b 458 708 264 625 319 708 b 736 417 667 708 736 569 l 736 14 "},"i":{"ha":847,"x_min":0,"x_max":0,"o":"m 764 0 l 125 0 l 111 14 l 111 111 l 125 125 l 389 125 l 403 139 l 403 556 l 389 569 l 194 569 l 181 583 l 181 681 l 194 694 l 528 694 l 542 681 l 542 139 l 556 125 l 764 125 l 778 111 l 778 14 m 542 806 l 375 806 l 361 819 l 361 958 l 375 972 l 542 972 l 556 958 l 556 819 "},"j":{"ha":847,"x_min":0,"x_max":0,"o":"m 222 -42 b 361 -167 222 -125 292 -167 b 514 0 444 -167 514 -139 l 514 556 l 500 569 l 208 569 l 194 583 l 194 681 l 208 694 l 639 694 l 653 681 l 653 0 b 361 -292 653 -208 528 -292 b 83 -42 222 -292 83 -208 l 83 0 l 97 14 l 208 14 l 222 0 m 653 806 l 486 806 l 472 819 l 472 958 l 486 972 l 653 972 l 667 958 l 667 819 "},"k":{"ha":847,"x_min":0,"x_max":0,"o":"m 722 0 l 667 0 l 639 14 l 431 278 l 417 278 l 292 153 l 278 125 l 278 14 l 264 0 l 153 0 l 139 14 l 139 958 l 153 972 l 264 972 l 278 958 l 278 333 l 292 333 l 639 681 l 667 694 l 708 694 l 722 681 l 722 583 l 528 389 l 528 375 l 736 111 l 736 14 "},"l":{"ha":847,"x_min":0,"x_max":0,"o":"m 764 0 l 125 0 l 111 14 l 111 111 l 125 125 l 389 125 l 403 139 l 403 833 l 389 847 l 194 847 l 181 861 l 181 958 l 194 972 l 528 972 l 542 958 l 542 139 l 556 125 l 764 125 l 778 111 l 778 14 "},"m":{"ha":847,"x_min":0,"x_max":0,"o":"m 667 14 l 667 458 b 597 583 667 542 653 583 b 500 431 542 583 500 556 l 500 14 l 486 0 l 375 0 l 361 14 l 361 458 b 292 583 361 542 347 583 b 194 431 236 583 194 556 l 194 14 l 181 0 l 69 0 l 56 14 l 56 681 l 69 694 l 167 694 l 181 681 l 194 625 l 208 625 b 347 708 222 667 264 708 b 472 625 417 708 458 667 l 486 625 b 625 708 500 667 542 708 b 806 444 778 708 806 597 l 806 14 l 792 0 l 681 0 "},"n":{"ha":847,"x_min":0,"x_max":0,"o":"m 722 0 l 611 0 l 597 14 l 597 417 b 444 583 597 486 569 583 b 250 347 319 583 250 514 l 250 14 l 236 0 l 125 0 l 111 14 l 111 681 l 125 694 l 222 694 l 236 681 l 250 625 l 264 625 b 458 708 264 625 319 708 b 736 417 653 708 736 583 l 736 14 "},"o":{"ha":847,"x_min":0,"x_max":0,"o":"m 417 -14 b 69 347 208 -14 69 125 b 417 708 69 569 208 708 l 431 708 b 778 347 639 708 778 569 b 431 -14 778 125 639 -14 m 431 111 b 639 347 556 111 639 194 b 431 583 639 500 556 583 l 417 583 b 208 347 292 583 208 500 b 417 111 208 194 292 111 "},"p":{"ha":847,"x_min":0,"x_max":0,"o":"m 778 347 b 472 -14 778 139 667 -14 b 278 69 333 -14 278 69 l 264 69 l 264 -264 l 250 -278 l 139 -278 l 125 -264 l 125 681 l 139 694 l 236 694 l 250 681 l 264 625 l 278 625 b 472 708 278 625 333 708 b 778 347 667 708 778 556 m 639 347 b 458 583 639 500 569 583 b 264 347 347 583 264 514 b 458 111 264 181 347 111 b 639 347 569 111 639 194 "},"q":{"ha":847,"x_min":0,"x_max":0,"o":"m 708 -278 l 597 -278 l 583 -264 l 583 69 l 569 69 b 375 -14 569 69 514 -14 b 69 347 181 -14 69 139 b 375 708 69 556 181 708 b 569 625 514 708 569 625 l 583 625 l 597 681 l 611 694 l 708 694 l 722 681 l 722 -264 m 583 347 b 389 583 583 514 500 583 b 208 347 278 583 208 500 b 389 111 208 194 278 111 b 583 347 500 111 583 181 "},"r":{"ha":847,"x_min":0,"x_max":0,"o":"m 486 708 b 764 444 625 708 764 639 l 750 431 l 639 431 l 625 444 b 472 583 625 542 569 583 b 278 361 347 583 278 528 l 278 14 l 264 0 l 153 0 l 139 14 l 139 681 l 153 694 l 250 694 l 264 681 l 278 625 l 292 625 b 486 708 292 625 347 708 "},"s":{"ha":847,"x_min":0,"x_max":0,"o":"m 389 306 b 125 514 250 319 125 361 b 417 708 125 639 236 708 b 708 500 569 708 708 653 l 694 486 l 583 486 l 569 500 b 417 583 569 556 528 583 b 264 514 306 583 264 556 b 458 417 264 444 319 431 b 722 208 597 403 722 361 b 417 -14 722 69 611 -14 b 111 222 236 -14 111 69 l 125 236 l 236 236 l 250 222 b 417 111 250 153 306 111 b 583 208 528 111 583 139 b 389 306 583 278 528 292 "},"t":{"ha":847,"x_min":0,"x_max":0,"o":"m 222 556 l 208 569 l 97 569 l 83 583 l 83 681 l 97 694 l 208 694 l 222 708 l 222 889 l 236 903 l 347 903 l 361 889 l 361 708 l 375 694 l 611 694 l 625 681 l 625 583 l 611 569 l 375 569 l 361 556 l 361 278 b 500 111 361 139 431 111 b 625 236 556 111 625 139 l 625 264 l 639 278 l 750 278 l 764 264 l 764 236 b 500 -14 764 42 611 -14 b 222 278 347 -14 222 69 "},"u":{"ha":847,"x_min":0,"x_max":0,"o":"m 708 0 l 611 0 l 597 14 l 583 69 l 569 69 b 389 -14 569 69 514 -14 b 111 278 194 -14 111 125 l 111 681 l 125 694 l 236 694 l 250 681 l 250 278 b 403 111 250 194 292 111 b 583 333 500 111 583 181 l 583 681 l 597 694 l 708 694 l 722 681 l 722 14 "},"v":{"ha":847,"x_min":0,"x_max":0,"o":"m 486 14 l 472 0 l 375 0 l 361 14 l 97 583 l 97 681 l 111 694 l 194 694 l 208 681 l 417 194 l 431 194 l 639 681 l 653 694 l 736 694 l 750 681 l 750 583 "},"w":{"ha":847,"x_min":0,"x_max":0,"o":"m 667 14 l 653 0 l 542 0 l 528 14 l 431 458 l 417 458 l 319 14 l 306 0 l 194 0 l 181 14 l 42 583 l 42 681 l 56 694 l 139 694 l 153 681 l 250 236 l 264 236 l 361 681 l 375 694 l 472 694 l 486 681 l 583 236 l 597 236 l 694 681 l 708 694 l 792 694 l 806 681 l 806 583 "},"x":{"ha":847,"x_min":0,"x_max":0,"o":"m 736 0 l 681 0 l 653 14 l 431 250 l 417 250 l 194 14 l 167 0 l 111 0 l 97 14 l 97 111 l 333 347 l 333 361 l 111 583 l 111 681 l 125 694 l 181 694 l 208 681 l 417 458 l 431 458 l 639 681 l 667 694 l 722 694 l 736 681 l 736 583 l 514 361 l 514 347 l 750 111 l 750 14 "},"y":{"ha":847,"x_min":0,"x_max":0,"o":"m 528 28 b 222 -222 444 -181 389 -222 l 167 -222 l 153 -208 l 153 -111 l 167 -97 l 222 -97 b 347 -42 292 -97 319 -83 l 347 0 l 111 583 l 111 681 l 125 694 l 208 694 l 222 681 l 417 167 l 444 167 l 639 681 l 653 694 l 736 694 l 750 681 l 750 583 "},"z":{"ha":847,"x_min":0,"x_max":0,"o":"m 736 0 l 111 0 l 97 14 l 97 125 l 111 153 l 542 556 l 542 569 l 125 569 l 111 583 l 111 681 l 125 694 l 722 694 l 736 681 l 736 569 l 722 542 l 292 139 l 292 125 l 736 125 l 750 111 l 750 14 "},"{":{"ha":847,"x_min":0,"x_max":0,"o":"m 444 -28 b 556 -153 444 -111 472 -153 l 667 -153 l 681 -167 l 681 -264 l 667 -278 l 542 -278 b 306 -42 417 -278 306 -194 l 306 181 b 181 292 306 264 278 292 l 167 306 l 167 389 l 181 403 b 306 514 278 403 306 431 l 306 736 b 542 972 306 889 417 972 l 667 972 l 681 958 l 681 861 l 667 847 l 556 847 b 444 722 472 847 444 806 l 444 500 b 375 361 444 431 431 389 l 375 333 b 444 194 431 306 444 264 "},"|":{"ha":847,"x_min":0,"x_max":0,"o":"m 472 -278 l 361 -278 l 347 -264 l 347 958 l 361 972 l 472 972 l 486 958 l 486 -264 "},"}":{"ha":847,"x_min":0,"x_max":0,"o":"m 403 194 b 472 333 403 264 417 306 l 472 361 b 403 500 417 389 403 431 l 403 722 b 292 847 403 806 375 847 l 181 847 l 167 861 l 167 958 l 181 972 l 306 972 b 542 736 431 972 542 889 l 542 514 b 667 403 542 431 569 403 l 681 389 l 681 306 l 667 292 b 542 181 569 292 542 264 l 542 -42 b 306 -278 542 -194 431 -278 l 181 -278 l 167 -264 l 167 -167 l 181 -153 l 292 -153 b 403 -28 375 -153 403 -111 "},"~":{"ha":847,"x_min":0,"x_max":0,"o":"m 361 292 b 250 361 319 333 292 361 b 181 250 194 361 181 319 l 167 236 l 83 236 l 69 250 b 278 500 69 389 125 500 b 472 403 375 500 431 444 b 583 333 514 361 542 333 b 653 444 639 333 653 375 l 667 458 l 750 458 l 764 444 b 556 194 764 306 708 194 b 361 292 458 194 403 250 "}," ":{"ha":847,"x_min":0,"x_max":0,"o":""},"¡":{"ha":847,"x_min":0,"x_max":0,"o":"m 361 347 l 375 361 l 431 361 l 444 347 l 472 28 l 472 -264 l 458 -278 l 347 -278 l 333 -264 l 333 28 m 306 694 l 500 694 l 514 681 l 514 486 l 500 472 l 306 472 l 292 486 l 292 681 "},"¢":{"ha":847,"x_min":0,"x_max":0,"o":"m 403 -28 l 389 -14 b 97 347 236 0 97 111 b 389 708 97 611 264 694 l 403 722 l 403 778 l 417 792 l 444 792 l 458 778 l 458 722 l 472 708 b 750 458 528 708 736 667 l 736 444 l 625 444 l 611 458 b 472 583 597 542 528 583 l 458 569 l 458 125 l 472 111 b 611 236 514 111 597 139 l 625 250 l 736 250 l 750 236 b 472 -14 736 28 528 -14 l 458 -28 l 458 -83 l 444 -97 l 417 -97 l 403 -83 m 236 347 b 389 111 236 194 306 125 l 403 125 l 403 569 l 389 583 b 236 347 319 569 236 514 "},"£":{"ha":847,"x_min":0,"x_max":0,"o":"m 597 389 l 319 389 l 306 375 l 306 264 b 250 139 306 194 264 153 l 250 125 l 778 125 l 792 111 l 792 14 l 778 0 l 56 0 l 42 14 l 42 111 l 56 125 l 69 125 b 167 250 139 125 167 167 l 167 375 l 153 389 l 69 389 l 56 403 l 56 486 l 69 500 l 153 500 l 167 514 l 167 681 b 458 986 167 861 264 986 b 736 694 653 986 736 875 l 722 681 l 611 681 l 597 694 b 458 861 597 806 569 861 b 306 681 347 861 306 792 l 306 514 l 319 500 l 597 500 l 611 486 l 611 403 "},"¤":{"ha":847,"x_min":0,"x_max":0,"o":"m 431 111 b 653 347 569 111 653 222 b 431 583 653 472 569 583 l 417 583 b 194 347 278 583 194 472 b 417 111 194 222 278 111 m 417 -14 b 222 42 333 -14 264 14 l 208 42 l 125 -42 l 111 -42 l 28 42 l 28 56 l 111 139 l 111 153 b 56 347 83 194 56 264 b 111 542 56 431 83 500 l 111 556 l 28 639 l 28 653 l 111 736 l 125 736 l 208 653 l 222 653 b 417 708 264 681 333 708 l 431 708 b 625 653 514 708 583 681 l 639 653 l 722 736 l 736 736 l 819 653 l 819 639 l 736 556 l 736 542 b 792 347 764 500 792 431 b 736 153 792 264 764 194 l 736 139 l 819 56 l 819 42 l 736 -42 l 722 -42 l 639 42 l 625 42 b 431 -14 583 14 514 -14 "},"¥":{"ha":847,"x_min":0,"x_max":0,"o":"m 486 14 l 472 0 l 361 0 l 347 14 l 347 167 l 333 181 l 181 181 l 167 194 l 167 278 l 181 292 l 333 292 l 347 306 l 347 333 l 319 389 l 292 403 l 139 403 l 125 417 l 125 500 l 139 514 l 250 514 l 250 528 l 83 861 l 83 958 l 97 972 l 167 972 l 194 958 l 403 514 l 431 514 l 639 958 l 667 972 l 736 972 l 750 958 l 750 861 l 583 528 l 583 514 l 694 514 l 708 500 l 708 417 l 694 403 l 542 403 l 514 389 l 486 333 l 486 306 l 500 292 l 653 292 l 667 278 l 667 194 l 653 181 l 500 181 l 486 167 "},"¦":{"ha":847,"x_min":0,"x_max":0,"o":"m 472 569 l 361 569 l 347 583 l 347 958 l 361 972 l 472 972 l 486 958 l 486 583 m 472 0 l 361 0 l 347 14 l 347 389 l 361 403 l 472 403 l 486 389 l 486 14 "},"§":{"ha":847,"x_min":0,"x_max":0,"o":"m 194 403 b 542 181 194 264 347 250 l 556 181 b 639 306 611 194 639 236 b 292 528 639 444 486 458 l 278 528 b 194 403 222 514 194 472 m 667 111 b 736 -42 694 83 736 42 b 431 -292 736 -194 639 -292 b 97 0 236 -292 97 -208 l 111 14 l 222 14 l 236 0 b 431 -167 236 -111 278 -167 b 597 -42 556 -167 597 -125 b 56 403 597 153 56 56 b 167 583 56 500 111 556 l 167 597 b 97 750 139 625 97 667 b 417 986 97 889 194 986 b 736 694 611 986 736 903 l 722 681 l 611 681 l 597 694 b 403 861 597 806 556 861 b 236 750 278 861 236 819 b 778 306 236 556 778 653 b 667 125 778 208 722 153 "},"¨":{"ha":847,"x_min":0,"x_max":0,"o":"m 639 806 l 500 806 l 486 819 l 486 958 l 500 972 l 639 972 l 653 958 l 653 819 m 347 806 l 208 806 l 194 819 l 194 958 l 208 972 l 347 972 l 361 958 l 361 819 "},"©":{"ha":847,"x_min":0,"x_max":0,"o":"m 56 347 b 417 708 56 556 208 708 b 778 347 625 708 778 556 b 417 -14 778 139 625 -14 b 56 347 208 -14 56 153 m 111 347 b 417 42 111 167 236 42 b 722 347 597 42 722 167 b 417 653 722 528 597 653 b 111 347 236 653 111 528 m 278 347 b 417 167 278 236 333 167 b 542 264 486 167 528 194 l 556 278 l 597 278 l 611 264 b 417 111 597 167 528 111 b 208 347 292 111 208 208 b 417 583 208 486 292 583 b 611 431 528 583 597 528 l 597 417 l 556 417 l 542 431 b 417 528 528 500 486 528 b 278 347 333 528 278 458 "},"ª":{"ha":847,"x_min":0,"x_max":0,"o":"m 694 472 l 653 472 b 556 514 611 472 583 486 l 542 514 b 389 458 528 500 486 458 b 153 722 250 458 153 556 b 389 986 153 903 264 986 b 514 944 458 986 500 958 l 528 944 l 528 958 l 542 972 l 639 972 l 653 958 l 653 625 b 681 583 653 597 667 583 l 694 583 l 708 569 l 708 486 m 278 722 b 403 569 278 625 319 569 b 528 722 486 569 528 625 b 403 875 528 819 486 875 b 278 722 319 875 278 819 m 681 264 l 194 264 l 181 278 l 181 347 l 194 361 l 681 361 l 694 347 l 694 278 "},"«":{"ha":847,"x_min":0,"x_max":0,"o":"m 417 42 l 306 42 l 278 56 l 56 278 l 42 306 l 42 389 l 56 417 l 278 639 l 306 653 l 417 653 l 431 639 l 431 597 l 181 361 l 181 333 l 431 97 l 431 56 m 778 42 l 667 42 l 639 56 l 417 278 l 403 306 l 403 389 l 417 417 l 639 639 l 667 653 l 778 653 l 792 639 l 792 597 l 542 361 l 542 333 l 792 97 l 792 56 "},"¬":{"ha":847,"x_min":0,"x_max":0,"o":"m 750 111 l 653 111 l 639 125 l 639 278 l 625 292 l 83 292 l 69 306 l 69 403 l 83 417 l 750 417 l 764 403 l 764 125 "},"­":{"ha":847,"x_min":0,"x_max":0,"o":"m 681 292 l 167 292 l 153 306 l 153 403 l 167 417 l 681 417 l 694 403 l 694 306 "},"®":{"ha":847,"x_min":0,"x_max":0,"o":"m 56 347 b 417 708 56 556 208 708 b 778 347 625 708 778 556 b 417 -14 778 139 625 -14 b 56 347 208 -14 56 153 m 111 347 b 417 42 111 167 236 42 b 722 347 597 42 722 167 b 417 653 722 528 597 653 b 111 347 236 653 111 528 m 542 444 b 458 514 542 500 514 514 l 333 514 l 319 500 l 319 389 l 333 375 l 458 375 b 542 444 514 375 542 389 m 597 167 l 597 139 l 583 125 l 569 125 l 542 139 l 431 306 l 403 319 l 333 319 l 319 306 l 319 139 l 306 125 l 264 125 l 250 139 l 250 556 l 264 569 l 472 569 b 611 444 556 569 611 528 b 500 319 611 403 597 333 l 500 306 "},"¯":{"ha":847,"x_min":0,"x_max":0,"o":"m 653 806 l 194 806 l 181 819 l 181 903 l 194 917 l 653 917 l 667 903 l 667 819 "},"°":{"ha":847,"x_min":0,"x_max":0,"o":"m 125 694 b 417 986 125 861 250 986 b 708 694 583 986 708 861 b 417 403 708 528 583 403 b 125 694 250 403 125 528 m 264 694 b 417 528 264 597 319 528 b 569 694 514 528 569 597 b 417 861 569 792 514 861 b 264 694 319 861 264 792 "},"±":{"ha":847,"x_min":0,"x_max":0,"o":"m 708 389 l 486 389 l 472 375 l 472 222 l 458 208 l 361 208 l 347 222 l 347 375 l 333 389 l 125 389 l 111 403 l 111 500 l 125 514 l 333 514 l 347 528 l 347 681 l 361 694 l 458 694 l 472 681 l 472 528 l 486 514 l 708 514 l 722 500 l 722 403 m 708 0 l 125 0 l 111 14 l 111 111 l 125 125 l 708 125 l 722 111 l 722 14 "},"²":{"ha":847,"x_min":0,"x_max":0,"o":"m 597 472 l 250 472 l 236 486 l 236 569 l 250 597 l 375 681 b 472 819 458 736 472 764 b 417 875 472 847 458 875 b 361 819 375 875 361 847 l 347 806 l 250 806 l 236 819 b 417 986 236 917 292 986 b 597 819 542 986 597 917 b 500 639 597 722 556 681 l 444 597 l 444 583 l 597 583 l 611 569 l 611 486 "},"³":{"ha":847,"x_min":0,"x_max":0,"o":"m 347 694 l 347 764 l 431 847 l 431 861 l 264 861 l 250 875 l 250 958 l 264 972 l 569 972 l 583 958 l 583 875 l 569 847 l 500 778 l 500 764 b 611 639 500 764 611 764 b 417 458 611 542 542 458 b 222 625 292 458 222 528 l 236 639 l 333 639 l 347 625 b 417 569 347 583 375 569 b 486 639 458 569 486 597 b 403 681 486 681 444 708 l 361 681 "},"´":{"ha":847,"x_min":0,"x_max":0,"o":"m 417 792 l 389 778 l 292 778 l 278 792 l 278 819 l 389 958 l 417 972 l 556 972 l 569 958 l 569 931 "},"µ":{"ha":847,"x_min":0,"x_max":0,"o":"m 556 42 b 417 -14 556 42 500 -14 b 278 42 333 -14 278 42 l 264 42 l 264 -264 l 250 -278 l 139 -278 l 125 -264 l 125 681 l 139 694 l 250 694 l 264 681 l 264 319 b 417 111 264 181 319 111 b 569 319 514 111 569 181 l 569 681 l 583 694 l 694 694 l 708 681 l 708 14 l 694 0 l 597 0 l 583 14 l 569 42 "},"¶":{"ha":847,"x_min":0,"x_max":0,"o":"m 431 -278 l 319 -278 l 306 -264 l 306 403 l 292 417 b 42 694 167 417 42 500 b 306 972 42 889 167 972 l 778 972 l 792 958 l 792 861 l 778 847 l 736 847 l 722 833 l 722 -264 l 708 -278 l 597 -278 l 583 -264 l 583 833 l 569 847 l 458 847 l 444 833 l 444 -264 "},"·":{"ha":847,"x_min":0,"x_max":0,"o":"m 514 250 l 319 250 l 306 264 l 306 458 l 319 472 l 514 472 l 528 458 l 528 264 "},"¸":{"ha":847,"x_min":0,"x_max":0,"o":"m 347 -139 l 333 -125 l 333 -111 l 444 0 l 500 0 l 403 -97 l 417 -97 b 472 -83 444 -83 458 -83 b 556 -181 514 -83 556 -111 b 417 -292 556 -250 500 -292 b 292 -236 361 -292 333 -278 l 292 -222 l 306 -208 l 319 -208 b 417 -236 347 -236 375 -236 b 486 -181 458 -236 486 -222 b 417 -125 486 -139 458 -125 b 361 -139 403 -125 389 -125 "},"¹":{"ha":847,"x_min":0,"x_max":0,"o":"m 236 569 l 250 583 l 361 583 l 375 597 l 375 806 l 361 806 l 306 750 l 264 750 l 250 764 l 250 847 l 361 958 l 389 972 l 486 972 l 500 958 l 500 597 l 514 583 l 597 583 l 611 569 l 611 486 l 597 472 l 250 472 l 236 486 "},"º":{"ha":847,"x_min":0,"x_max":0,"o":"m 444 458 b 194 722 278 458 194 569 b 444 986 194 875 278 986 b 694 722 611 986 694 875 b 444 458 694 569 611 458 m 319 722 b 444 569 319 625 361 569 b 569 722 528 569 569 625 b 444 875 569 819 528 875 b 319 722 361 875 319 819 m 653 264 l 236 264 l 222 278 l 222 347 l 236 361 l 653 361 l 667 347 l 667 278 "},"»":{"ha":847,"x_min":0,"x_max":0,"o":"m 417 56 l 417 97 l 667 333 l 667 347 l 417 597 l 417 639 l 431 653 l 542 653 l 569 639 l 792 417 l 806 389 l 806 306 l 792 278 l 569 56 l 542 42 l 431 42 m 56 56 l 56 97 l 306 333 l 306 347 l 56 597 l 56 639 l 69 653 l 181 653 l 208 639 l 431 417 l 444 389 l 444 306 l 431 278 l 208 56 l 181 42 l 69 42 "},"¼":{"ha":847,"x_min":0,"x_max":0,"o":"m 167 125 l 139 111 l 125 111 l 111 125 l 111 222 l 653 847 l 681 861 l 694 861 l 708 847 l 708 750 m 250 528 l 167 528 l 153 542 l 153 819 l 139 819 l 83 764 l 56 764 l 42 778 l 42 861 l 139 958 l 167 972 l 250 972 l 264 958 l 264 542 m 750 0 l 667 0 l 653 14 l 653 97 l 639 111 l 431 111 l 417 125 l 417 208 l 431 236 l 625 431 l 653 444 l 750 444 l 764 431 l 764 14 m 639 306 l 625 306 l 542 222 l 542 208 l 625 208 l 639 222 "},"½":{"ha":847,"x_min":0,"x_max":0,"o":"m 792 0 l 472 0 l 458 14 l 458 83 l 472 111 l 556 167 b 681 306 639 222 681 250 b 625 361 681 333 667 361 b 569 306 583 361 569 333 l 556 292 l 472 292 l 458 306 b 625 458 458 389 514 458 b 792 306 736 458 792 389 b 681 139 792 236 764 194 l 639 111 l 639 97 l 792 97 l 806 83 l 806 14 m 153 125 l 125 111 l 111 111 l 97 125 l 97 222 l 639 847 l 667 861 l 681 861 l 694 847 l 694 750 m 250 528 l 167 528 l 153 542 l 153 819 l 139 819 l 83 764 l 56 764 l 42 778 l 42 861 l 139 958 l 167 972 l 250 972 l 264 958 l 264 542 "},"¾":{"ha":847,"x_min":0,"x_max":0,"o":"m 194 125 l 167 111 l 153 111 l 139 125 l 139 222 l 681 847 l 708 861 l 722 861 l 736 847 l 736 750 m 764 0 l 681 0 l 667 14 l 667 97 l 653 111 l 444 111 l 431 125 l 431 208 l 444 236 l 639 431 l 667 444 l 764 444 l 778 431 l 778 14 m 653 306 l 639 306 l 556 222 l 556 208 l 639 208 l 653 222 m 139 736 l 139 792 l 222 861 l 222 875 l 69 875 l 56 889 l 56 958 l 69 972 l 333 972 l 347 958 l 347 889 l 333 861 l 264 792 l 264 778 b 361 667 319 778 361 736 b 194 514 361 583 306 514 b 28 667 83 514 28 583 l 42 681 l 125 681 l 139 667 b 194 611 139 625 167 611 b 250 667 222 611 250 625 b 181 722 250 722 222 736 l 153 722 "},"¿":{"ha":847,"x_min":0,"x_max":0,"o":"m 125 -28 b 264 208 125 97 181 153 b 375 361 347 264 375 292 l 389 375 l 500 375 l 514 361 b 403 153 514 264 486 208 b 264 -28 319 97 264 56 b 431 -167 264 -97 306 -167 b 597 14 556 -167 597 -97 l 611 28 l 722 28 l 736 14 b 431 -292 736 -167 639 -292 b 125 -28 250 -292 125 -194 m 347 694 l 542 694 l 556 681 l 556 486 l 542 472 l 347 472 l 333 486 l 333 681 "},"À":{"ha":847,"x_min":0,"x_max":0,"o":"m 639 181 l 611 194 l 236 194 l 208 181 l 153 14 l 139 0 l 56 0 l 42 14 l 42 111 l 347 958 l 361 972 l 486 972 l 500 958 l 806 111 l 806 14 l 792 0 l 708 0 l 694 14 m 264 333 l 278 319 l 569 319 l 583 333 l 431 764 l 417 764 m 500 1056 l 403 1056 l 375 1069 l 222 1208 l 222 1236 l 236 1250 l 375 1250 l 403 1236 l 514 1097 l 514 1069 "},"Á":{"ha":847,"x_min":0,"x_max":0,"o":"m 639 181 l 611 194 l 236 194 l 208 181 l 153 14 l 139 0 l 56 0 l 42 14 l 42 111 l 347 958 l 361 972 l 486 972 l 500 958 l 806 111 l 806 14 l 792 0 l 708 0 l 694 14 m 264 333 l 278 319 l 569 319 l 583 333 l 431 764 l 417 764 m 472 1069 l 444 1056 l 347 1056 l 333 1069 l 333 1097 l 444 1236 l 472 1250 l 611 1250 l 625 1236 l 625 1208 "},"Â":{"ha":847,"x_min":0,"x_max":0,"o":"m 639 181 l 611 194 l 236 194 l 208 181 l 153 14 l 139 0 l 56 0 l 42 14 l 42 111 l 347 958 l 361 972 l 486 972 l 500 958 l 806 111 l 806 14 l 792 0 l 708 0 l 694 14 m 264 333 l 278 319 l 569 319 l 583 333 l 431 764 l 417 764 m 653 1056 l 556 1056 l 528 1069 l 431 1153 l 417 1153 l 319 1069 l 292 1056 l 194 1056 l 181 1069 l 181 1097 l 292 1236 l 319 1250 l 528 1250 l 556 1236 l 667 1097 l 667 1069 "},"Ã":{"ha":847,"x_min":0,"x_max":0,"o":"m 639 181 l 611 194 l 236 194 l 208 181 l 153 14 l 139 0 l 56 0 l 42 14 l 42 111 l 347 958 l 361 972 l 486 972 l 500 958 l 806 111 l 806 14 l 792 0 l 708 0 l 694 14 m 264 333 l 278 319 l 569 319 l 583 333 l 431 764 l 417 764 m 514 1028 b 319 1125 417 1028 375 1125 b 278 1069 292 1125 278 1111 l 264 1056 l 194 1056 l 181 1069 b 333 1236 181 1181 250 1236 b 528 1139 431 1236 472 1139 b 569 1194 556 1139 569 1153 l 583 1208 l 653 1208 l 667 1194 b 514 1028 667 1083 597 1028 "},"Ä":{"ha":847,"x_min":0,"x_max":0,"o":"m 639 181 l 611 194 l 236 194 l 208 181 l 153 14 l 139 0 l 56 0 l 42 14 l 42 111 l 347 958 l 361 972 l 486 972 l 500 958 l 806 111 l 806 14 l 792 0 l 708 0 l 694 14 m 264 333 l 278 319 l 569 319 l 583 333 l 431 764 l 417 764 m 639 1083 l 500 1083 l 486 1097 l 486 1236 l 500 1250 l 639 1250 l 653 1236 l 653 1097 m 347 1083 l 208 1083 l 194 1097 l 194 1236 l 208 1250 l 347 1250 l 361 1236 l 361 1097 "},"Å":{"ha":847,"x_min":0,"x_max":0,"o":"m 639 181 l 611 194 l 236 194 l 208 181 l 153 14 l 139 0 l 56 0 l 42 14 l 42 111 l 347 958 l 361 972 l 486 972 l 500 958 l 806 111 l 806 14 l 792 0 l 708 0 l 694 14 m 264 333 l 278 319 l 569 319 l 583 333 l 431 764 l 417 764 m 444 1083 b 500 1125 486 1083 500 1097 b 444 1167 500 1153 486 1167 l 403 1167 b 347 1125 361 1167 347 1153 b 403 1083 347 1097 361 1083 m 403 1000 b 250 1125 306 1000 250 1056 b 403 1250 250 1194 306 1250 l 444 1250 b 597 1125 542 1250 597 1194 b 444 1000 597 1056 542 1000 "},"Æ":{"ha":847,"x_min":0,"x_max":0,"o":"m 194 236 l 139 14 l 125 0 l 42 0 l 28 14 l 28 111 l 250 958 l 264 972 l 778 972 l 792 958 l 792 861 l 778 847 l 556 847 l 542 833 l 542 569 l 556 556 l 750 556 l 764 542 l 764 444 l 750 431 l 556 431 l 542 417 l 542 139 l 556 125 l 778 125 l 792 111 l 792 14 l 778 0 l 417 0 l 403 14 l 403 236 l 389 250 l 208 250 m 236 389 l 250 375 l 389 375 l 403 389 l 403 833 l 389 847 l 361 847 l 347 833 "},"Ç":{"ha":847,"x_min":0,"x_max":0,"o":"m 472 -28 l 403 -97 l 417 -97 b 472 -83 444 -83 458 -83 b 556 -181 514 -83 556 -111 b 417 -292 556 -250 500 -292 b 292 -236 361 -292 333 -278 l 292 -222 l 306 -208 l 319 -208 b 417 -236 347 -236 375 -236 b 486 -181 458 -236 486 -222 b 417 -125 486 -139 458 -125 b 361 -139 403 -125 389 -125 l 347 -139 l 333 -125 l 333 -111 l 417 -28 l 417 -14 b 56 486 181 0 56 167 b 444 986 56 819 194 986 b 792 694 653 986 778 875 l 778 681 l 667 681 l 653 694 b 444 861 639 792 583 861 b 194 486 278 861 194 736 b 444 111 194 236 278 111 b 653 292 597 111 639 194 l 667 306 l 778 306 l 792 292 b 500 -14 778 97 653 0 "},"È":{"ha":847,"x_min":0,"x_max":0,"o":"m 736 0 l 111 0 l 97 14 l 97 958 l 111 972 l 736 972 l 750 958 l 750 861 l 736 847 l 250 847 l 236 833 l 236 569 l 250 556 l 708 556 l 722 542 l 722 444 l 708 431 l 250 431 l 236 417 l 236 139 l 250 125 l 736 125 l 750 111 l 750 14 m 514 1056 l 417 1056 l 389 1069 l 236 1208 l 236 1236 l 250 1250 l 389 1250 l 417 1236 l 528 1097 l 528 1069 "},"É":{"ha":847,"x_min":0,"x_max":0,"o":"m 736 0 l 111 0 l 97 14 l 97 958 l 111 972 l 736 972 l 750 958 l 750 861 l 736 847 l 250 847 l 236 833 l 236 569 l 250 556 l 708 556 l 722 542 l 722 444 l 708 431 l 250 431 l 236 417 l 236 139 l 250 125 l 736 125 l 750 111 l 750 14 m 458 1069 l 431 1056 l 333 1056 l 319 1069 l 319 1097 l 431 1236 l 458 1250 l 597 1250 l 611 1236 l 611 1208 "},"Ê":{"ha":847,"x_min":0,"x_max":0,"o":"m 736 0 l 111 0 l 97 14 l 97 958 l 111 972 l 736 972 l 750 958 l 750 861 l 736 847 l 250 847 l 236 833 l 236 569 l 250 556 l 708 556 l 722 542 l 722 444 l 708 431 l 250 431 l 236 417 l 236 139 l 250 125 l 736 125 l 750 111 l 750 14 m 653 1056 l 556 1056 l 528 1069 l 431 1153 l 417 1153 l 319 1069 l 292 1056 l 194 1056 l 181 1069 l 181 1097 l 306 1236 l 333 1250 l 514 1250 l 542 1236 l 667 1097 l 667 1069 "},"Ë":{"ha":847,"x_min":0,"x_max":0,"o":"m 736 0 l 111 0 l 97 14 l 97 958 l 111 972 l 736 972 l 750 958 l 750 861 l 736 847 l 250 847 l 236 833 l 236 569 l 250 556 l 708 556 l 722 542 l 722 444 l 708 431 l 250 431 l 236 417 l 236 139 l 250 125 l 736 125 l 750 111 l 750 14 m 639 1056 l 500 1056 l 486 1069 l 486 1208 l 500 1222 l 639 1222 l 653 1208 l 653 1069 m 347 1056 l 208 1056 l 194 1069 l 194 1208 l 208 1222 l 347 1222 l 361 1208 l 361 1069 "},"Ì":{"ha":847,"x_min":0,"x_max":0,"o":"m 500 1056 l 403 1056 l 375 1069 l 222 1208 l 222 1236 l 236 1250 l 375 1250 l 403 1236 l 514 1097 l 514 1069 m 694 0 l 139 0 l 125 14 l 125 111 l 139 125 l 333 125 l 347 139 l 347 833 l 333 847 l 153 847 l 139 861 l 139 958 l 153 972 l 681 972 l 694 958 l 694 861 l 681 847 l 500 847 l 486 833 l 486 139 l 500 125 l 694 125 l 708 111 l 708 14 "},"Í":{"ha":847,"x_min":0,"x_max":0,"o":"m 458 1069 l 431 1056 l 333 1056 l 319 1069 l 319 1097 l 431 1236 l 458 1250 l 597 1250 l 611 1236 l 611 1208 m 694 0 l 139 0 l 125 14 l 125 111 l 139 125 l 333 125 l 347 139 l 347 833 l 333 847 l 153 847 l 139 861 l 139 958 l 153 972 l 681 972 l 694 958 l 694 861 l 681 847 l 500 847 l 486 833 l 486 139 l 500 125 l 694 125 l 708 111 l 708 14 "},"Î":{"ha":847,"x_min":0,"x_max":0,"o":"m 653 1056 l 556 1056 l 528 1069 l 431 1153 l 403 1153 l 306 1069 l 278 1056 l 181 1056 l 167 1069 l 167 1097 l 292 1236 l 319 1250 l 514 1250 l 542 1236 l 667 1097 l 667 1069 m 694 0 l 139 0 l 125 14 l 125 111 l 139 125 l 333 125 l 347 139 l 347 833 l 333 847 l 153 847 l 139 861 l 139 958 l 153 972 l 681 972 l 694 958 l 694 861 l 681 847 l 500 847 l 486 833 l 486 139 l 500 125 l 694 125 l 708 111 l 708 14 "},"Ï":{"ha":847,"x_min":0,"x_max":0,"o":"m 639 1056 l 500 1056 l 486 1069 l 486 1208 l 500 1222 l 639 1222 l 653 1208 l 653 1069 m 333 1056 l 194 1056 l 181 1069 l 181 1208 l 194 1222 l 333 1222 l 347 1208 l 347 1069 m 694 0 l 139 0 l 125 14 l 125 111 l 139 125 l 333 125 l 347 139 l 347 833 l 333 847 l 153 847 l 139 861 l 139 958 l 153 972 l 681 972 l 694 958 l 694 861 l 681 847 l 500 847 l 486 833 l 486 139 l 500 125 l 694 125 l 708 111 l 708 14 "},"Ð":{"ha":847,"x_min":0,"x_max":0,"o":"m -14 542 l 0 556 l 83 556 l 97 569 l 97 958 l 111 972 l 333 972 b 778 486 681 972 778 778 b 333 0 778 194 681 0 l 111 0 l 97 14 l 97 417 l 83 431 l 0 431 l -14 444 m 639 486 b 319 847 639 722 583 847 l 250 847 l 236 833 l 236 569 l 250 556 l 444 556 l 458 542 l 458 444 l 444 431 l 250 431 l 236 417 l 236 139 l 250 125 l 319 125 b 639 486 583 125 639 250 "},"Ñ":{"ha":847,"x_min":0,"x_max":0,"o":"m 514 1028 b 319 1125 417 1028 375 1125 b 278 1069 292 1125 278 1111 l 264 1056 l 194 1056 l 181 1069 b 333 1236 181 1181 250 1236 b 528 1139 431 1236 472 1139 b 569 1194 556 1139 569 1153 l 583 1208 l 653 1208 l 667 1194 b 514 1028 667 1083 597 1028 m 736 0 l 611 0 l 583 14 l 250 694 l 236 694 l 236 14 l 222 0 l 111 0 l 97 14 l 97 958 l 111 972 l 236 972 l 264 958 l 597 278 l 611 278 l 611 958 l 625 972 l 736 972 l 750 958 l 750 14 "},"Ò":{"ha":847,"x_min":0,"x_max":0,"o":"m 417 -14 b 56 486 181 -14 56 153 b 417 986 56 819 181 986 l 431 986 b 792 486 667 986 792 819 b 431 -14 792 153 667 -14 m 431 111 b 653 486 583 111 653 236 b 431 861 653 736 583 861 l 417 861 b 194 486 264 861 194 736 b 417 111 194 236 264 111 m 528 1042 l 431 1042 l 403 1056 l 250 1194 l 250 1222 l 264 1236 l 403 1236 l 431 1222 l 542 1083 l 542 1056 "},"Ó":{"ha":847,"x_min":0,"x_max":0,"o":"m 417 -14 b 56 486 181 -14 56 153 b 417 986 56 819 181 986 l 431 986 b 792 486 667 986 792 819 b 431 -14 792 153 667 -14 m 431 111 b 653 486 583 111 653 236 b 431 861 653 736 583 861 l 417 861 b 194 486 264 861 194 736 b 417 111 194 236 264 111 m 444 1056 l 417 1042 l 319 1042 l 306 1056 l 306 1083 l 417 1222 l 444 1236 l 583 1236 l 597 1222 l 597 1194 "},"Ô":{"ha":847,"x_min":0,"x_max":0,"o":"m 417 -14 b 56 486 181 -14 56 153 b 417 986 56 819 181 986 l 431 986 b 792 486 667 986 792 819 b 431 -14 792 153 667 -14 m 431 111 b 653 486 583 111 653 236 b 431 861 653 736 583 861 l 417 861 b 194 486 264 861 194 736 b 417 111 194 236 264 111 m 653 1056 l 556 1056 l 528 1069 l 431 1153 l 417 1153 l 319 1069 l 292 1056 l 194 1056 l 181 1069 l 181 1097 l 306 1236 l 333 1250 l 514 1250 l 542 1236 l 667 1097 l 667 1069 "},"Õ":{"ha":847,"x_min":0,"x_max":0,"o":"m 417 -14 b 56 486 181 -14 56 153 b 417 986 56 819 181 986 l 431 986 b 792 486 667 986 792 819 b 431 -14 792 153 667 -14 m 431 111 b 653 486 583 111 653 236 b 431 861 653 736 583 861 l 417 861 b 194 486 264 861 194 736 b 417 111 194 236 264 111 m 514 1028 b 319 1125 417 1028 375 1125 b 278 1069 292 1125 278 1111 l 264 1056 l 194 1056 l 181 1069 b 333 1236 181 1181 250 1236 b 528 1139 431 1236 472 1139 b 569 1194 556 1139 569 1153 l 583 1208 l 653 1208 l 667 1194 b 514 1028 667 1083 597 1028 "},"Ö":{"ha":847,"x_min":0,"x_max":0,"o":"m 417 -14 b 56 486 181 -14 56 153 b 417 986 56 819 181 986 l 431 986 b 792 486 667 986 792 819 b 431 -14 792 153 667 -14 m 431 111 b 653 486 583 111 653 236 b 431 861 653 736 583 861 l 417 861 b 194 486 264 861 194 736 b 417 111 194 236 264 111 m 639 1083 l 500 1083 l 486 1097 l 486 1236 l 500 1250 l 639 1250 l 653 1236 l 653 1097 m 347 1083 l 208 1083 l 194 1097 l 194 1236 l 208 1250 l 347 1250 l 361 1236 l 361 1097 "},"×":{"ha":847,"x_min":0,"x_max":0,"o":"m 681 28 l 667 28 l 431 264 l 417 264 l 181 28 l 167 28 l 97 97 l 97 111 l 333 347 l 333 361 l 97 597 l 97 611 l 167 681 l 181 681 l 417 444 l 431 444 l 667 681 l 681 681 l 750 611 l 750 597 l 514 361 l 514 347 l 750 111 l 750 97 "},"Ø":{"ha":847,"x_min":0,"x_max":0,"o":"m 792 486 b 431 -14 792 153 667 -14 l 417 -14 b 181 69 319 -14 236 14 l 167 69 l 125 14 l 111 0 l 83 0 l 69 14 l 69 28 l 125 111 l 125 139 b 56 486 83 222 56 333 b 417 986 56 819 181 986 l 431 986 b 667 903 528 986 611 958 l 681 903 l 722 958 l 736 972 l 764 972 l 778 958 l 778 944 l 722 861 l 722 833 b 792 486 764 750 792 639 m 264 208 l 264 181 b 417 111 292 139 347 111 l 431 111 b 653 486 583 111 653 236 b 625 708 653 528 653 625 l 611 708 m 583 764 l 583 792 b 431 861 556 833 500 861 l 417 861 b 194 486 264 861 194 736 b 222 264 194 444 194 347 l 236 264 "},"Ù":{"ha":847,"x_min":0,"x_max":0,"o":"m 514 1042 l 417 1042 l 389 1056 l 236 1194 l 236 1222 l 250 1236 l 389 1236 l 417 1222 l 528 1083 l 528 1056 m 417 -14 b 83 347 181 -14 83 125 l 83 958 l 97 972 l 208 972 l 222 958 l 222 347 b 417 111 222 208 264 111 l 431 111 b 625 347 583 111 625 208 l 625 958 l 639 972 l 750 972 l 764 958 l 764 347 b 431 -14 764 125 667 -14 "},"Ú":{"ha":847,"x_min":0,"x_max":0,"o":"m 458 1056 l 431 1042 l 333 1042 l 319 1056 l 319 1083 l 431 1222 l 458 1236 l 597 1236 l 611 1222 l 611 1194 m 417 -14 b 83 347 181 -14 83 125 l 83 958 l 97 972 l 208 972 l 222 958 l 222 347 b 417 111 222 208 264 111 l 431 111 b 625 347 583 111 625 208 l 625 958 l 639 972 l 750 972 l 764 958 l 764 347 b 431 -14 764 125 667 -14 "},"Û":{"ha":847,"x_min":0,"x_max":0,"o":"m 653 1056 l 556 1056 l 528 1069 l 431 1153 l 417 1153 l 319 1069 l 292 1056 l 194 1056 l 181 1069 l 181 1097 l 306 1236 l 333 1250 l 514 1250 l 542 1236 l 667 1097 l 667 1069 m 417 -14 b 83 347 181 -14 83 125 l 83 958 l 97 972 l 208 972 l 222 958 l 222 347 b 417 111 222 208 264 111 l 431 111 b 625 347 583 111 625 208 l 625 958 l 639 972 l 750 972 l 764 958 l 764 347 b 431 -14 764 125 667 -14 "},"Ü":{"ha":847,"x_min":0,"x_max":0,"o":"m 639 1083 l 500 1083 l 486 1097 l 486 1236 l 500 1250 l 639 1250 l 653 1236 l 653 1097 m 347 1083 l 208 1083 l 194 1097 l 194 1236 l 208 1250 l 347 1250 l 361 1236 l 361 1097 m 417 -14 b 83 347 181 -14 83 125 l 83 958 l 97 972 l 208 972 l 222 958 l 222 347 b 417 111 222 208 264 111 l 431 111 b 625 347 583 111 625 208 l 625 958 l 639 972 l 750 972 l 764 958 l 764 347 b 431 -14 764 125 667 -14 "},"Ý":{"ha":847,"x_min":0,"x_max":0,"o":"m 486 375 l 486 14 l 472 0 l 361 0 l 347 14 l 347 375 l 56 861 l 56 958 l 69 972 l 125 972 l 153 958 l 403 528 l 431 528 l 681 958 l 708 972 l 764 972 l 778 958 l 778 861 m 444 1069 l 417 1056 l 319 1056 l 306 1069 l 306 1097 l 417 1236 l 444 1250 l 583 1250 l 597 1236 l 597 1208 "},"Þ":{"ha":847,"x_min":0,"x_max":0,"o":"m 486 333 b 667 486 611 333 667 375 b 486 639 667 597 611 639 l 264 639 l 250 625 l 250 347 l 264 333 m 250 194 l 250 14 l 236 0 l 125 0 l 111 14 l 111 958 l 125 972 l 236 972 l 250 958 l 250 778 l 264 764 l 486 764 b 806 486 681 764 806 681 b 486 208 806 292 667 208 l 264 208 "},"ß":{"ha":847,"x_min":0,"x_max":0,"o":"m 778 292 b 486 -14 778 125 681 -14 b 361 14 417 -14 361 14 l 347 28 l 347 111 l 361 125 b 486 111 361 125 417 111 b 639 292 597 111 639 194 b 431 458 639 403 597 458 l 417 472 l 417 556 l 431 569 b 597 708 556 569 597 625 b 431 861 597 792 569 861 b 278 708 333 861 278 819 l 278 14 l 264 0 l 153 0 l 139 14 l 139 569 l 125 583 l 56 583 l 42 597 l 42 681 l 56 694 l 125 694 l 139 708 b 431 986 139 875 236 986 b 736 722 653 986 736 861 b 625 528 736 611 667 556 l 625 514 b 778 292 694 500 778 431 "},"à":{"ha":847,"x_min":0,"x_max":0,"o":"m 708 0 l 611 0 l 597 14 l 583 69 l 569 69 b 361 -14 569 69 514 -14 b 111 208 208 -14 111 56 b 431 431 111 375 250 431 b 569 417 514 431 569 417 l 583 431 l 583 458 b 431 583 583 556 528 583 b 278 500 333 583 278 556 l 264 486 l 153 486 l 139 500 b 431 708 139 611 222 708 b 722 403 639 708 722 611 l 722 14 m 583 292 l 569 306 b 444 319 569 306 528 319 b 250 208 319 319 250 292 b 389 111 250 125 306 111 b 583 250 500 111 583 181 m 542 778 l 444 778 l 417 792 l 264 931 l 264 958 l 278 972 l 417 972 l 444 958 l 556 819 l 556 792 "},"á":{"ha":847,"x_min":0,"x_max":0,"o":"m 708 0 l 611 0 l 597 14 l 583 69 l 569 69 b 361 -14 569 69 514 -14 b 111 208 208 -14 111 56 b 431 431 111 375 250 431 b 569 417 514 431 569 417 l 583 431 l 583 458 b 431 583 583 556 528 583 b 278 500 333 583 278 556 l 264 486 l 153 486 l 139 500 b 431 708 139 611 222 708 b 722 403 639 708 722 611 l 722 14 m 583 292 l 569 306 b 444 319 569 306 528 319 b 250 208 319 319 250 292 b 389 111 250 125 306 111 b 583 250 500 111 583 181 m 444 792 l 417 778 l 319 778 l 306 792 l 306 819 l 417 958 l 444 972 l 583 972 l 597 958 l 597 931 "},"â":{"ha":847,"x_min":0,"x_max":0,"o":"m 708 0 l 611 0 l 597 14 l 583 69 l 569 69 b 361 -14 569 69 514 -14 b 111 208 208 -14 111 56 b 431 431 111 375 250 431 b 569 417 514 431 569 417 l 583 431 l 583 458 b 431 583 583 556 528 583 b 278 500 333 583 278 556 l 264 486 l 153 486 l 139 500 b 431 708 139 611 222 708 b 722 403 639 708 722 611 l 722 14 m 583 292 l 569 306 b 444 319 569 306 528 319 b 250 208 319 319 250 292 b 389 111 250 125 306 111 b 583 250 500 111 583 181 m 667 778 l 569 778 l 542 792 l 444 875 l 431 875 l 333 792 l 306 778 l 208 778 l 194 792 l 194 819 l 319 958 l 347 972 l 528 972 l 556 958 l 681 819 l 681 792 "},"ã":{"ha":847,"x_min":0,"x_max":0,"o":"m 528 764 b 333 861 431 764 389 861 b 292 806 306 861 292 847 l 278 792 l 208 792 l 194 806 b 347 972 194 917 264 972 b 542 875 444 972 486 875 b 583 931 569 875 583 889 l 597 944 l 667 944 l 681 931 b 528 764 681 819 611 764 m 708 0 l 611 0 l 597 14 l 583 69 l 569 69 b 361 -14 569 69 514 -14 b 111 208 208 -14 111 56 b 431 431 111 375 250 431 b 569 417 514 431 569 417 l 583 431 l 583 458 b 431 583 583 556 528 583 b 278 500 333 583 278 556 l 264 486 l 153 486 l 139 500 b 431 708 139 611 222 708 b 722 403 639 708 722 611 l 722 14 m 583 292 l 569 306 b 444 319 569 306 528 319 b 250 208 319 319 250 292 b 389 111 250 125 306 111 b 583 250 500 111 583 181 "},"ä":{"ha":847,"x_min":0,"x_max":0,"o":"m 708 0 l 611 0 l 597 14 l 583 69 l 569 69 b 361 -14 569 69 514 -14 b 111 208 208 -14 111 56 b 431 431 111 375 250 431 b 569 417 514 431 569 417 l 583 431 l 583 458 b 431 583 583 556 528 583 b 278 500 333 583 278 556 l 264 486 l 153 486 l 139 500 b 431 708 139 611 222 708 b 722 403 639 708 722 611 l 722 14 m 583 292 l 569 306 b 444 319 569 306 528 319 b 250 208 319 319 250 292 b 389 111 250 125 306 111 b 583 250 500 111 583 181 m 653 806 l 514 806 l 500 819 l 500 958 l 514 972 l 653 972 l 667 958 l 667 819 m 361 806 l 222 806 l 208 819 l 208 958 l 222 972 l 361 972 l 375 958 l 375 819 "},"å":{"ha":847,"x_min":0,"x_max":0,"o":"m 708 0 l 611 0 l 597 14 l 583 69 l 569 69 b 361 -14 569 69 514 -14 b 111 208 208 -14 111 56 b 431 431 111 375 250 431 b 569 417 514 431 569 417 l 583 431 l 583 458 b 431 583 583 556 528 583 b 278 500 333 583 278 556 l 264 486 l 153 486 l 139 500 b 431 708 139 611 222 708 b 722 403 639 708 722 611 l 722 14 m 583 292 l 569 306 b 444 319 569 306 528 319 b 250 208 319 319 250 292 b 389 111 250 125 306 111 b 583 250 500 111 583 181 m 458 847 b 514 889 500 847 514 861 b 458 931 514 917 500 931 l 417 931 b 361 889 375 931 361 917 b 417 847 361 861 375 847 m 417 764 b 264 889 319 764 264 819 b 417 1014 264 958 319 1014 l 458 1014 b 611 889 556 1014 611 958 b 458 764 611 819 556 764 "},"æ":{"ha":847,"x_min":0,"x_max":0,"o":"m 667 472 b 583 583 667 556 639 583 b 500 472 528 583 500 556 l 500 417 l 514 403 l 653 403 l 667 417 m 361 417 l 361 472 b 264 583 361 556 333 583 b 181 514 222 583 181 569 l 167 500 l 56 500 l 42 514 b 264 708 42 639 139 708 b 417 639 333 708 389 681 l 431 639 b 583 708 458 681 514 708 b 806 458 736 708 806 611 l 806 306 l 792 292 l 514 292 l 500 278 l 500 208 b 583 111 500 139 542 111 b 667 194 653 111 667 153 l 681 208 l 792 208 l 806 194 b 583 -14 806 97 750 -14 b 431 56 514 -14 458 14 l 417 56 b 236 -14 375 14 319 -14 b 14 208 97 -14 14 69 b 250 417 14 333 97 417 b 347 403 306 417 347 403 m 347 292 b 264 306 347 292 319 306 b 153 208 194 306 153 278 b 250 111 153 139 194 111 b 361 208 333 111 361 153 l 361 278 "},"ç":{"ha":847,"x_min":0,"x_max":0,"o":"m 750 236 b 500 -14 736 56 583 0 l 472 -28 l 403 -97 l 417 -97 b 472 -83 444 -83 458 -83 b 556 -181 514 -83 556 -111 b 417 -292 556 -250 500 -292 b 292 -236 361 -292 333 -278 l 292 -222 l 306 -208 l 319 -208 b 417 -236 347 -236 375 -236 b 486 -181 458 -236 486 -222 b 417 -125 486 -139 458 -125 b 361 -139 403 -125 389 -125 l 347 -139 l 333 -125 l 333 -111 l 417 -28 l 417 -14 b 97 347 208 0 97 139 b 444 708 97 569 222 708 b 750 458 583 708 736 639 l 736 444 l 625 444 l 611 458 b 444 583 597 542 542 583 b 236 347 306 583 236 500 b 444 111 236 194 306 111 b 611 236 542 111 597 153 l 625 250 l 736 250 "},"è":{"ha":847,"x_min":0,"x_max":0,"o":"m 597 417 b 417 583 597 458 583 583 b 236 417 250 583 236 458 l 250 403 l 583 403 m 431 -14 b 83 347 194 -14 83 139 b 417 708 83 542 181 708 b 750 347 653 708 750 542 l 750 306 l 736 292 l 250 292 l 236 278 b 431 111 236 250 250 111 b 583 194 500 111 556 125 l 597 208 l 708 208 l 722 194 b 431 -14 708 83 611 -14 m 528 778 l 431 778 l 403 792 l 250 931 l 250 958 l 264 972 l 403 972 l 431 958 l 542 819 l 542 792 "},"é":{"ha":847,"x_min":0,"x_max":0,"o":"m 597 417 b 417 583 597 458 583 583 b 236 417 250 583 236 458 l 250 403 l 583 403 m 431 -14 b 83 347 194 -14 83 139 b 417 708 83 542 181 708 b 750 347 653 708 750 542 l 750 306 l 736 292 l 250 292 l 236 278 b 431 111 236 250 250 111 b 583 194 500 111 556 125 l 597 208 l 708 208 l 722 194 b 431 -14 708 83 611 -14 m 431 792 l 403 778 l 306 778 l 292 792 l 292 819 l 403 958 l 431 972 l 569 972 l 583 958 l 583 931 "},"ê":{"ha":847,"x_min":0,"x_max":0,"o":"m 597 417 b 417 583 597 458 583 583 b 236 417 250 583 236 458 l 250 403 l 583 403 m 431 -14 b 83 347 194 -14 83 139 b 417 708 83 542 181 708 b 750 347 653 708 750 542 l 750 306 l 736 292 l 250 292 l 236 278 b 431 111 236 250 250 111 b 583 194 500 111 556 125 l 597 208 l 708 208 l 722 194 b 431 -14 708 83 611 -14 m 653 778 l 556 778 l 528 792 l 431 875 l 417 875 l 319 792 l 292 778 l 194 778 l 181 792 l 181 819 l 306 958 l 333 972 l 514 972 l 542 958 l 667 819 l 667 792 "},"ë":{"ha":847,"x_min":0,"x_max":0,"o":"m 597 417 b 417 583 597 458 583 583 b 236 417 250 583 236 458 l 250 403 l 583 403 m 431 -14 b 83 347 194 -14 83 139 b 417 708 83 542 181 708 b 750 347 653 708 750 542 l 750 306 l 736 292 l 250 292 l 236 278 b 431 111 236 250 250 111 b 583 194 500 111 556 125 l 597 208 l 708 208 l 722 194 b 431 -14 708 83 611 -14 m 639 806 l 500 806 l 486 819 l 486 958 l 500 972 l 639 972 l 653 958 l 653 819 m 347 806 l 208 806 l 194 819 l 194 958 l 208 972 l 347 972 l 361 958 l 361 819 "},"ì":{"ha":847,"x_min":0,"x_max":0,"o":"m 764 0 l 125 0 l 111 14 l 111 111 l 125 125 l 389 125 l 403 139 l 403 556 l 389 569 l 194 569 l 181 583 l 181 681 l 194 694 l 528 694 l 542 681 l 542 139 l 556 125 l 764 125 l 778 111 l 778 14 m 542 778 l 444 778 l 417 792 l 264 931 l 264 958 l 278 972 l 417 972 l 444 958 l 556 819 l 556 792 "},"í":{"ha":847,"x_min":0,"x_max":0,"o":"m 764 0 l 125 0 l 111 14 l 111 111 l 125 125 l 389 125 l 403 139 l 403 556 l 389 569 l 194 569 l 181 583 l 181 681 l 194 694 l 528 694 l 542 681 l 542 139 l 556 125 l 764 125 l 778 111 l 778 14 m 528 792 l 500 778 l 403 778 l 389 792 l 389 819 l 500 958 l 528 972 l 667 972 l 681 958 l 681 931 "},"î":{"ha":847,"x_min":0,"x_max":0,"o":"m 764 0 l 125 0 l 111 14 l 111 111 l 125 125 l 389 125 l 403 139 l 403 556 l 389 569 l 194 569 l 181 583 l 181 681 l 194 694 l 528 694 l 542 681 l 542 139 l 556 125 l 764 125 l 778 111 l 778 14 m 694 778 l 597 778 l 569 792 l 472 875 l 458 875 l 361 792 l 333 778 l 236 778 l 222 792 l 222 819 l 347 958 l 375 972 l 556 972 l 583 958 l 708 819 l 708 792 "},"ï":{"ha":847,"x_min":0,"x_max":0,"o":"m 764 0 l 125 0 l 111 14 l 111 111 l 125 125 l 389 125 l 403 139 l 403 556 l 389 569 l 194 569 l 181 583 l 181 681 l 194 694 l 528 694 l 542 681 l 542 139 l 556 125 l 764 125 l 778 111 l 778 14 m 681 806 l 542 806 l 528 819 l 528 958 l 542 972 l 681 972 l 694 958 l 694 819 m 389 806 l 250 806 l 236 819 l 236 958 l 250 972 l 389 972 l 403 958 l 403 819 "},"ð":{"ha":847,"x_min":0,"x_max":0,"o":"m 556 653 b 472 792 542 722 514 764 l 458 792 l 403 736 l 319 736 l 306 750 l 306 792 l 347 833 l 347 847 b 250 861 306 861 278 861 l 236 875 l 236 889 l 292 944 l 319 958 b 431 944 347 958 389 958 l 444 944 l 486 986 l 514 1000 l 597 1000 l 611 986 l 611 958 l 556 903 l 556 889 b 736 347 694 778 736 611 b 417 -14 736 111 611 -14 b 111 347 250 -14 111 111 b 403 708 111 556 222 708 b 542 653 500 708 542 653 m 597 347 b 417 583 597 514 528 583 b 250 347 306 583 250 500 b 417 111 250 181 319 111 b 597 347 528 111 597 181 "},"ñ":{"ha":847,"x_min":0,"x_max":0,"o":"m 528 764 b 333 861 431 764 389 861 b 292 806 306 861 292 847 l 278 792 l 208 792 l 194 806 b 347 972 194 917 264 972 b 542 875 444 972 486 875 b 583 931 569 875 583 889 l 597 944 l 681 944 l 694 931 b 528 764 694 819 625 764 m 722 0 l 611 0 l 597 14 l 597 417 b 444 583 597 486 569 583 b 250 347 319 583 250 514 l 250 14 l 236 0 l 125 0 l 111 14 l 111 681 l 125 694 l 222 694 l 236 681 l 250 625 l 264 625 b 458 708 264 625 319 708 b 736 417 653 708 736 583 l 736 14 "},"ò":{"ha":847,"x_min":0,"x_max":0,"o":"m 417 -14 b 69 347 208 -14 69 125 b 417 708 69 569 208 708 l 431 708 b 778 347 639 708 778 569 b 431 -14 778 125 639 -14 m 431 111 b 639 347 556 111 639 194 b 431 583 639 500 556 583 l 417 583 b 208 347 292 583 208 500 b 417 111 208 194 292 111 m 528 778 l 431 778 l 403 792 l 250 931 l 250 958 l 264 972 l 403 972 l 431 958 l 542 819 l 542 792 "},"ó":{"ha":847,"x_min":0,"x_max":0,"o":"m 417 -14 b 69 347 208 -14 69 125 b 417 708 69 569 208 708 l 431 708 b 778 347 639 708 778 569 b 431 -14 778 125 639 -14 m 431 111 b 639 347 556 111 639 194 b 431 583 639 500 556 583 l 417 583 b 208 347 292 583 208 500 b 417 111 208 194 292 111 m 444 792 l 417 778 l 319 778 l 306 792 l 306 819 l 417 958 l 444 972 l 583 972 l 597 958 l 597 931 "},"ô":{"ha":847,"x_min":0,"x_max":0,"o":"m 417 -14 b 69 347 208 -14 69 125 b 417 708 69 569 208 708 l 431 708 b 778 347 639 708 778 569 b 431 -14 778 125 639 -14 m 431 111 b 639 347 556 111 639 194 b 431 583 639 500 556 583 l 417 583 b 208 347 292 583 208 500 b 417 111 208 194 292 111 m 653 778 l 556 778 l 528 792 l 431 875 l 417 875 l 319 792 l 292 778 l 194 778 l 181 792 l 181 819 l 306 958 l 333 972 l 514 972 l 542 958 l 667 819 l 667 792 "},"õ":{"ha":847,"x_min":0,"x_max":0,"o":"m 417 -14 b 69 347 208 -14 69 125 b 417 708 69 569 208 708 l 431 708 b 778 347 639 708 778 569 b 431 -14 778 125 639 -14 m 431 111 b 639 347 556 111 639 194 b 431 583 639 500 556 583 l 417 583 b 208 347 292 583 208 500 b 417 111 208 194 292 111 m 431 833 b 500 889 472 833 500 847 b 431 944 500 931 472 944 l 417 944 b 347 889 375 944 347 931 b 417 833 347 847 375 833 m 417 764 b 264 889 319 764 264 819 b 417 1014 264 958 319 1014 l 431 1014 b 583 889 528 1014 583 958 b 431 764 583 819 528 764 "},"ö":{"ha":847,"x_min":0,"x_max":0,"o":"m 417 -14 b 69 347 208 -14 69 125 b 417 708 69 569 208 708 l 431 708 b 778 347 639 708 778 569 b 431 -14 778 125 639 -14 m 431 111 b 639 347 556 111 639 194 b 431 583 639 500 556 583 l 417 583 b 208 347 292 583 208 500 b 417 111 208 194 292 111 m 639 806 l 500 806 l 486 819 l 486 958 l 500 972 l 639 972 l 653 958 l 653 819 m 347 806 l 208 806 l 194 819 l 194 958 l 208 972 l 347 972 l 361 958 l 361 819 "},"÷":{"ha":847,"x_min":0,"x_max":0,"o":"m 750 292 l 97 292 l 83 306 l 83 389 l 97 403 l 750 403 l 764 389 l 764 306 m 514 500 l 333 500 l 319 514 l 319 681 l 333 694 l 514 694 l 528 681 l 528 514 m 514 0 l 333 0 l 319 14 l 319 181 l 333 194 l 514 194 l 528 181 l 528 14 "},"ø":{"ha":847,"x_min":0,"x_max":0,"o":"m 778 347 b 431 -14 778 125 639 -14 l 417 -14 b 194 56 319 -14 250 14 l 181 56 l 139 14 l 111 0 l 97 0 l 83 14 l 83 42 l 139 97 l 139 111 b 69 347 97 167 69 250 b 417 708 69 569 208 708 l 431 708 b 653 639 528 708 597 681 l 667 639 l 708 681 l 736 694 l 750 694 l 764 681 l 764 653 l 708 597 l 708 583 b 778 347 750 528 778 444 m 292 167 l 292 153 b 417 111 306 139 347 111 l 431 111 b 639 347 556 111 639 194 b 611 486 639 403 625 458 l 597 486 m 556 528 l 556 542 b 431 583 542 556 500 583 l 417 583 b 208 347 292 583 208 500 b 236 208 208 292 222 236 l 250 208 "},"ù":{"ha":847,"x_min":0,"x_max":0,"o":"m 708 0 l 611 0 l 597 14 l 583 69 l 569 69 b 389 -14 569 69 514 -14 b 111 278 194 -14 111 125 l 111 681 l 125 694 l 236 694 l 250 681 l 250 278 b 403 111 250 194 292 111 b 583 333 500 111 583 181 l 583 681 l 597 694 l 708 694 l 722 681 l 722 14 m 500 778 l 403 778 l 375 792 l 222 931 l 222 958 l 236 972 l 375 972 l 403 958 l 514 819 l 514 792 "},"ú":{"ha":847,"x_min":0,"x_max":0,"o":"m 708 0 l 611 0 l 597 14 l 583 69 l 569 69 b 389 -14 569 69 514 -14 b 111 278 194 -14 111 125 l 111 681 l 125 694 l 236 694 l 250 681 l 250 278 b 403 111 250 194 292 111 b 583 333 500 111 583 181 l 583 681 l 597 694 l 708 694 l 722 681 l 722 14 m 458 792 l 431 778 l 333 778 l 319 792 l 319 819 l 431 958 l 458 972 l 597 972 l 611 958 l 611 931 "},"û":{"ha":847,"x_min":0,"x_max":0,"o":"m 708 0 l 611 0 l 597 14 l 583 69 l 569 69 b 389 -14 569 69 514 -14 b 111 278 194 -14 111 125 l 111 681 l 125 694 l 236 694 l 250 681 l 250 278 b 403 111 250 194 292 111 b 583 333 500 111 583 181 l 583 681 l 597 694 l 708 694 l 722 681 l 722 14 m 653 778 l 556 778 l 528 792 l 431 875 l 417 875 l 319 792 l 292 778 l 194 778 l 181 792 l 181 819 l 306 958 l 333 972 l 514 972 l 542 958 l 667 819 l 667 792 "},"ü":{"ha":847,"x_min":0,"x_max":0,"o":"m 708 0 l 611 0 l 597 14 l 583 69 l 569 69 b 389 -14 569 69 514 -14 b 111 278 194 -14 111 125 l 111 681 l 125 694 l 236 694 l 250 681 l 250 278 b 403 111 250 194 292 111 b 583 333 500 111 583 181 l 583 681 l 597 694 l 708 694 l 722 681 l 722 14 m 639 806 l 500 806 l 486 819 l 486 958 l 500 972 l 639 972 l 653 958 l 653 819 m 347 806 l 208 806 l 194 819 l 194 958 l 208 972 l 347 972 l 361 958 l 361 819 "},"ý":{"ha":847,"x_min":0,"x_max":0,"o":"m 528 28 b 222 -222 444 -181 389 -222 l 167 -222 l 153 -208 l 153 -111 l 167 -97 l 222 -97 b 347 -42 292 -97 319 -83 l 347 0 l 111 583 l 111 681 l 125 694 l 208 694 l 222 681 l 417 167 l 444 167 l 639 681 l 653 694 l 736 694 l 750 681 l 750 583 m 458 792 l 431 778 l 333 778 l 319 792 l 319 819 l 431 958 l 458 972 l 597 972 l 611 958 l 611 931 "},"þ":{"ha":847,"x_min":0,"x_max":0,"o":"m 778 347 b 472 -14 778 139 667 -14 b 278 69 333 -14 278 69 l 264 69 l 264 -264 l 250 -278 l 139 -278 l 125 -264 l 125 958 l 139 972 l 250 972 l 264 958 l 264 625 l 278 625 b 472 708 278 625 333 708 b 778 347 667 708 778 556 m 639 347 b 458 583 639 500 569 583 b 264 347 347 583 264 514 b 458 111 264 181 347 111 b 639 347 569 111 639 194 "},"ÿ":{"ha":847,"x_min":0,"x_max":0,"o":"m 639 806 l 500 806 l 486 819 l 486 958 l 500 972 l 639 972 l 653 958 l 653 819 m 361 806 l 222 806 l 208 819 l 208 958 l 222 972 l 361 972 l 375 958 l 375 819 m 528 28 b 222 -222 444 -181 389 -222 l 167 -222 l 153 -208 l 153 -111 l 167 -97 l 222 -97 b 347 -42 292 -97 319 -83 l 347 0 l 111 583 l 111 681 l 125 694 l 208 694 l 222 681 l 417 167 l 444 167 l 639 681 l 653 694 l 736 694 l 750 681 l 750 583 "},"ı":{"ha":847,"x_min":0,"x_max":0,"o":"m 764 0 l 125 0 l 111 14 l 111 111 l 125 125 l 389 125 l 403 139 l 403 556 l 389 569 l 194 569 l 181 583 l 181 681 l 194 694 l 528 694 l 542 681 l 542 139 l 556 125 l 764 125 l 778 111 l 778 14 "},"Ł":{"ha":847,"x_min":0,"x_max":0,"o":"m -14 361 l 111 444 l 125 472 l 125 958 l 139 972 l 250 972 l 264 958 l 264 556 l 278 556 l 486 694 l 514 694 l 528 681 l 528 583 l 278 417 l 264 389 l 264 139 l 278 125 l 778 125 l 792 111 l 792 14 l 778 0 l 139 0 l 125 14 l 125 306 l 111 306 l 28 250 l 0 250 l -14 264 "},"ł":{"ha":847,"x_min":0,"x_max":0,"o":"m 264 444 l 389 528 l 403 556 l 403 833 l 389 847 l 194 847 l 181 861 l 181 958 l 194 972 l 528 972 l 542 958 l 542 639 l 556 639 l 639 694 l 667 694 l 681 681 l 681 583 l 556 500 l 542 472 l 542 139 l 556 125 l 764 125 l 778 111 l 778 14 l 764 0 l 125 0 l 111 14 l 111 111 l 125 125 l 389 125 l 403 139 l 403 389 l 389 389 l 306 333 l 278 333 l 264 347 "},"Œ":{"ha":847,"x_min":0,"x_max":0,"o":"m 56 681 b 292 986 56 889 153 986 b 403 944 361 986 403 944 l 417 944 l 417 958 l 431 972 l 792 972 l 806 958 l 806 861 l 792 847 l 569 847 l 556 833 l 556 569 l 569 556 l 764 556 l 778 542 l 778 444 l 764 431 l 569 431 l 556 417 l 556 139 l 569 125 l 792 125 l 806 111 l 806 14 l 792 0 l 431 0 l 417 14 l 417 28 l 403 28 b 292 -14 403 28 361 -14 b 56 292 153 -14 56 83 m 417 764 b 306 861 417 764 403 861 b 194 667 236 861 194 819 l 194 306 b 306 111 194 153 236 111 b 417 208 403 111 417 208 "},"œ":{"ha":847,"x_min":0,"x_max":0,"o":"m 667 472 b 583 583 667 556 639 583 b 500 472 528 583 500 556 l 500 417 l 514 403 l 653 403 l 667 417 m 361 458 b 264 583 361 556 319 583 b 167 458 208 583 167 556 l 167 236 b 264 111 167 139 208 111 b 361 236 319 111 361 139 m 417 56 b 264 -14 389 14 333 -14 b 28 236 111 -14 28 83 l 28 458 b 264 708 28 611 111 708 b 417 639 333 708 389 681 l 431 639 b 583 708 458 681 514 708 b 806 458 736 708 806 611 l 806 306 l 792 292 l 514 292 l 500 278 l 500 208 b 583 111 500 139 542 111 b 667 194 653 111 667 153 l 681 208 l 792 208 l 806 194 b 583 -14 806 97 750 -14 b 431 56 514 -14 458 14 "},"Š":{"ha":847,"x_min":0,"x_max":0,"o":"m 806 264 b 431 -14 806 111 694 -14 b 42 306 194 -14 42 97 l 56 319 l 167 319 l 181 306 b 444 111 181 167 278 111 b 667 264 569 111 667 153 b 389 444 667 389 583 417 b 69 722 194 472 69 556 b 417 986 69 847 167 986 b 778 694 625 986 778 903 l 764 681 l 653 681 l 639 694 b 403 861 639 806 583 861 b 208 722 278 861 208 806 b 472 556 208 611 278 583 b 806 264 667 528 806 458 m 667 1236 l 667 1208 l 542 1069 l 514 1056 l 333 1056 l 306 1069 l 181 1208 l 181 1236 l 194 1250 l 292 1250 l 319 1236 l 417 1153 l 431 1153 l 528 1236 l 556 1250 l 653 1250 "},"š":{"ha":847,"x_min":0,"x_max":0,"o":"m 389 306 b 125 514 250 319 125 361 b 417 708 125 639 236 708 b 708 500 569 708 708 653 l 694 486 l 583 486 l 569 500 b 417 583 569 556 528 583 b 264 514 306 583 264 556 b 458 417 264 444 319 431 b 722 208 597 403 722 361 b 417 -14 722 69 611 -14 b 111 222 236 -14 111 69 l 125 236 l 236 236 l 250 222 b 417 111 250 153 306 111 b 583 208 528 111 583 139 b 389 306 583 278 528 292 m 667 958 l 667 931 l 542 792 l 514 778 l 333 778 l 306 792 l 181 931 l 181 958 l 194 972 l 292 972 l 319 958 l 417 875 l 431 875 l 528 958 l 556 972 l 653 972 "},"Ÿ":{"ha":847,"x_min":0,"x_max":0,"o":"m 639 1083 l 500 1083 l 486 1097 l 486 1236 l 500 1250 l 639 1250 l 653 1236 l 653 1097 m 333 1083 l 194 1083 l 181 1097 l 181 1236 l 194 1250 l 333 1250 l 347 1236 l 347 1097 m 486 375 l 486 14 l 472 0 l 361 0 l 347 14 l 347 375 l 56 861 l 56 958 l 69 972 l 125 972 l 153 958 l 403 528 l 431 528 l 681 958 l 708 972 l 764 972 l 778 958 l 778 861 "},"Ž":{"ha":847,"x_min":0,"x_max":0,"o":"m 764 0 l 83 0 l 69 14 l 69 125 l 83 153 l 583 833 l 583 847 l 97 847 l 83 861 l 83 958 l 97 972 l 736 972 l 750 958 l 750 847 l 736 819 l 236 139 l 236 125 l 764 125 l 778 111 l 778 14 m 667 1236 l 667 1208 l 542 1069 l 514 1056 l 333 1056 l 306 1069 l 181 1208 l 181 1236 l 194 1250 l 292 1250 l 319 1236 l 417 1153 l 431 1153 l 528 1236 l 556 1250 l 653 1250 "},"ž":{"ha":847,"x_min":0,"x_max":0,"o":"m 736 0 l 111 0 l 97 14 l 97 125 l 111 153 l 542 556 l 542 569 l 125 569 l 111 583 l 111 681 l 125 694 l 722 694 l 736 681 l 736 569 l 722 542 l 292 139 l 292 125 l 736 125 l 750 111 l 750 14 m 667 958 l 667 931 l 542 792 l 514 778 l 333 778 l 306 792 l 181 931 l 181 958 l 194 972 l 292 972 l 319 958 l 417 875 l 431 875 l 528 958 l 556 972 l 653 972 "},"ƒ":{"ha":847,"x_min":0,"x_max":0,"o":"m 514 708 l 528 694 l 764 694 l 778 681 l 778 597 l 764 583 l 500 583 l 486 569 l 361 -56 b 83 -278 333 -194 278 -278 l 42 -278 l 28 -264 l 28 -181 l 42 -167 l 97 -167 b 222 -56 181 -167 208 -125 l 347 569 l 333 583 l 153 583 l 139 597 l 139 681 l 153 694 l 361 694 l 375 708 l 389 778 b 639 972 417 917 486 972 l 681 972 l 694 958 l 694 875 l 681 861 l 625 861 b 528 778 569 861 542 847 "},"ˆ":{"ha":847,"x_min":0,"x_max":0,"o":"m 653 778 l 556 778 l 528 792 l 431 875 l 417 875 l 319 792 l 292 778 l 194 778 l 181 792 l 181 819 l 306 958 l 333 972 l 514 972 l 542 958 l 667 819 l 667 792 "},"ˇ":{"ha":847,"x_min":0,"x_max":0,"o":"m 667 958 l 667 931 l 542 792 l 514 778 l 333 778 l 306 792 l 181 931 l 181 958 l 194 972 l 292 972 l 319 958 l 417 875 l 431 875 l 528 958 l 556 972 l 653 972 "},"ˉ":{"ha":847,"x_min":0,"x_max":0,"o":"m 653 806 l 194 806 l 181 819 l 181 903 l 194 917 l 653 917 l 667 903 l 667 819 "},"˘":{"ha":847,"x_min":0,"x_max":0,"o":"m 403 764 b 208 944 292 764 208 833 l 222 958 l 292 958 l 306 944 b 403 861 306 889 347 861 l 431 861 b 528 944 486 861 528 889 l 542 958 l 611 958 l 625 944 b 431 764 625 833 542 764 "},"˙":{"ha":847,"x_min":0,"x_max":0,"o":"m 500 806 l 333 806 l 319 819 l 319 958 l 333 972 l 500 972 l 514 958 l 514 819 "},"˚":{"ha":847,"x_min":0,"x_max":0,"o":"m 444 847 b 500 889 486 847 500 861 b 444 931 500 917 486 931 l 403 931 b 347 889 361 931 347 917 b 403 847 347 861 361 847 m 403 764 b 250 889 306 764 250 819 b 403 1014 250 958 306 1014 l 444 1014 b 597 889 542 1014 597 958 b 444 764 597 819 542 764 "},"˛":{"ha":847,"x_min":0,"x_max":0,"o":"m 514 0 b 375 -111 431 -14 375 -56 b 444 -181 375 -153 403 -181 b 514 -167 486 -181 514 -167 l 528 -181 l 528 -236 l 514 -250 b 417 -278 514 -250 472 -278 b 264 -139 333 -278 264 -222 b 403 0 264 -56 333 -14 "},"˜":{"ha":847,"x_min":0,"x_max":0,"o":"m 514 764 b 319 861 417 764 375 861 b 278 806 292 861 278 847 l 264 792 l 194 792 l 181 806 b 333 972 181 917 250 972 b 528 875 431 972 472 875 b 569 931 556 875 569 889 l 583 944 l 653 944 l 667 931 b 514 764 667 819 597 764 "},"˝":{"ha":847,"x_min":0,"x_max":0,"o":"m 264 792 l 236 778 l 139 778 l 125 792 l 125 819 l 236 958 l 264 972 l 403 972 l 417 958 l 417 931 m 569 792 l 542 778 l 444 778 l 431 792 l 431 819 l 542 958 l 569 972 l 708 972 l 722 958 l 722 931 "},"Δ":{"ha":847,"x_min":0,"x_max":0,"o":"m 56 14 l 56 111 l 347 958 l 361 972 l 486 972 l 500 958 l 792 111 l 792 14 l 778 0 l 69 0 m 208 139 l 208 125 l 639 125 l 639 139 l 431 764 l 417 764 "},"Ω":{"ha":847,"x_min":0,"x_max":0,"o":"m 194 139 b 42 556 42 292 42 319 b 417 986 42 847 181 986 b 792 556 653 986 792 847 b 639 139 792 306 792 292 l 639 125 l 764 125 l 778 111 l 778 14 l 764 0 l 500 0 l 486 14 l 486 125 l 500 153 b 653 542 639 292 653 319 b 417 861 653 764 583 861 b 181 542 250 861 181 764 b 333 153 181 319 194 292 l 347 125 l 347 14 l 333 0 l 69 0 l 56 14 l 56 111 l 69 125 l 194 125 "},"μ":{"ha":847,"x_min":0,"x_max":0,"o":"m 556 42 b 417 -14 556 42 500 -14 b 278 42 333 -14 278 42 l 264 42 l 264 -264 l 250 -278 l 139 -278 l 125 -264 l 125 681 l 139 694 l 250 694 l 264 681 l 264 319 b 417 111 264 181 319 111 b 569 319 514 111 569 181 l 569 681 l 583 694 l 694 694 l 708 681 l 708 14 l 694 0 l 597 0 l 583 14 l 569 42 "},"π":{"ha":847,"x_min":0,"x_max":0,"o":"m 736 0 l 514 0 l 500 14 l 500 556 l 486 569 l 333 569 l 319 556 l 319 14 l 306 0 l 194 0 l 181 14 l 181 556 l 167 569 l 83 569 l 69 583 l 69 681 l 83 694 l 750 694 l 764 681 l 764 583 l 750 569 l 653 569 l 639 556 l 639 139 l 653 125 l 736 125 l 750 111 l 750 14 "},"–":{"ha":847,"x_min":0,"x_max":0,"o":"m 750 292 l 97 292 l 83 306 l 83 403 l 97 417 l 750 417 l 764 403 l 764 306 "},"—":{"ha":847,"x_min":0,"x_max":0,"o":"m 806 292 l 42 292 l 28 306 l 28 403 l 42 417 l 806 417 l 819 403 l 819 306 "},"‘":{"ha":847,"x_min":0,"x_max":0,"o":"m 319 819 l 431 958 l 458 972 l 542 972 l 542 958 l 444 806 l 444 792 l 458 778 l 514 778 l 528 764 l 528 569 l 514 556 l 319 556 l 306 569 l 306 778 "},"’":{"ha":847,"x_min":0,"x_max":0,"o":"m 528 708 l 417 569 l 389 556 l 306 556 l 306 569 l 403 722 l 403 736 l 389 750 l 333 750 l 319 764 l 319 958 l 333 972 l 528 972 l 542 958 l 542 750 "},"‚":{"ha":847,"x_min":0,"x_max":0,"o":"m 528 -42 l 417 -181 l 389 -194 l 306 -194 l 306 -181 l 403 -28 l 403 -14 l 389 0 l 333 0 l 319 14 l 319 208 l 333 222 l 528 222 l 542 208 l 542 0 "},"“":{"ha":847,"x_min":0,"x_max":0,"o":"m 153 819 l 264 958 l 292 972 l 375 972 l 375 958 l 278 806 l 278 792 l 292 778 l 347 778 l 361 764 l 361 569 l 347 556 l 153 556 l 139 569 l 139 778 m 486 819 l 597 958 l 625 972 l 708 972 l 708 958 l 611 806 l 611 792 l 625 778 l 681 778 l 694 764 l 694 569 l 681 556 l 486 556 l 472 569 l 472 778 "},"”":{"ha":847,"x_min":0,"x_max":0,"o":"m 694 708 l 583 569 l 556 556 l 472 556 l 472 569 l 569 722 l 569 736 l 556 750 l 500 750 l 486 764 l 486 958 l 500 972 l 694 972 l 708 958 l 708 750 m 361 708 l 250 569 l 222 556 l 139 556 l 139 569 l 236 722 l 236 736 l 222 750 l 167 750 l 153 764 l 153 958 l 167 972 l 361 972 l 375 958 l 375 750 "},"„":{"ha":847,"x_min":0,"x_max":0,"o":"m 694 -42 l 583 -181 l 556 -194 l 472 -194 l 472 -181 l 569 -28 l 569 -14 l 556 0 l 500 0 l 486 14 l 486 208 l 500 222 l 694 222 l 708 208 l 708 0 m 361 -42 l 250 -181 l 222 -194 l 139 -194 l 139 -181 l 236 -28 l 236 -14 l 222 0 l 167 0 l 153 14 l 153 208 l 167 222 l 361 222 l 375 208 l 375 0 "},"†":{"ha":847,"x_min":0,"x_max":0,"o":"m 472 -278 l 361 -278 l 347 -264 l 347 556 l 333 569 l 69 569 l 56 583 l 56 681 l 69 694 l 333 694 l 347 708 l 347 958 l 361 972 l 472 972 l 486 958 l 486 708 l 500 694 l 764 694 l 778 681 l 778 583 l 764 569 l 500 569 l 486 556 l 486 -264 "},"‡":{"ha":847,"x_min":0,"x_max":0,"o":"m 361 972 l 472 972 l 486 958 l 486 708 l 500 694 l 764 694 l 778 681 l 778 583 l 764 569 l 500 569 l 486 556 l 486 139 l 500 125 l 764 125 l 778 111 l 778 14 l 764 0 l 500 0 l 486 -14 l 486 -264 l 472 -278 l 361 -278 l 347 -264 l 347 -14 l 333 0 l 69 0 l 56 14 l 56 111 l 69 125 l 333 125 l 347 139 l 347 556 l 333 569 l 69 569 l 56 583 l 56 681 l 69 694 l 333 694 l 347 708 l 347 958 "},"•":{"ha":847,"x_min":0,"x_max":0,"o":"m 611 347 l 431 167 l 417 167 l 236 347 l 236 361 l 417 542 l 431 542 l 611 361 "},"…":{"ha":847,"x_min":0,"x_max":0,"o":"m 486 0 l 347 0 l 333 14 l 333 208 l 347 222 l 486 222 l 500 208 l 500 14 m 222 0 l 83 0 l 69 14 l 69 208 l 83 222 l 222 222 l 236 208 l 236 14 m 750 0 l 611 0 l 597 14 l 597 208 l 611 222 l 750 222 l 764 208 l 764 14 "},"‰":{"ha":847,"x_min":0,"x_max":0,"o":"m 167 236 l 139 222 l 125 222 l 111 236 l 111 333 l 583 806 l 611 819 l 625 819 l 639 806 l 639 708 m 181 514 b 28 750 56 514 28 597 b 181 986 28 903 56 986 b 333 750 306 986 333 903 b 181 514 333 597 306 514 m 153 750 b 181 625 153 653 153 625 b 208 750 208 625 208 653 b 181 875 208 847 208 875 b 153 750 153 875 153 847 m 833 222 b 681 -14 833 69 806 -14 b 597 14 639 -14 611 0 l 583 14 b 500 -14 569 0 542 -14 b 347 222 375 -14 347 69 b 500 458 347 375 375 458 b 583 431 542 458 569 444 l 597 431 b 681 458 611 444 639 458 b 833 222 806 458 833 375 m 472 222 b 500 97 472 125 472 97 b 528 222 528 97 528 125 b 500 347 528 319 528 347 b 472 222 472 347 472 319 m 653 222 b 681 97 653 125 653 97 b 708 222 708 97 708 125 b 681 347 708 319 708 347 b 653 222 653 347 653 319 "},"‹":{"ha":847,"x_min":0,"x_max":0,"o":"m 597 42 l 486 42 l 458 56 l 236 278 l 222 306 l 222 389 l 236 417 l 458 639 l 486 653 l 597 653 l 611 639 l 611 597 l 361 361 l 361 333 l 611 97 l 611 56 "},"›":{"ha":847,"x_min":0,"x_max":0,"o":"m 236 56 l 236 97 l 486 333 l 486 361 l 236 597 l 236 639 l 250 653 l 361 653 l 389 639 l 611 417 l 625 389 l 625 306 l 611 278 l 389 56 l 361 42 l 250 42 "},"⁄":{"ha":847,"x_min":0,"x_max":0,"o":"m 181 125 l 153 111 l 139 111 l 125 125 l 125 222 l 667 847 l 694 861 l 708 861 l 722 847 l 722 750 "},"€":{"ha":847,"x_min":0,"x_max":0,"o":"m 514 319 l 292 319 l 278 306 b 472 111 292 194 333 111 b 653 278 583 111 639 194 l 667 292 l 778 292 l 792 278 b 472 -14 778 111 653 -14 b 139 306 264 -14 153 111 l 125 319 l 56 319 l 42 333 l 42 417 l 56 431 l 111 431 l 125 444 l 125 500 l 111 514 l 56 514 l 42 528 l 42 611 l 56 625 l 125 625 l 139 639 b 472 986 153 833 250 986 b 792 694 667 986 778 875 l 778 681 l 667 681 l 653 694 b 472 861 639 792 597 861 b 278 639 333 861 292 764 l 292 625 l 569 625 l 583 611 l 583 528 l 569 514 l 278 514 l 264 500 l 264 444 l 278 431 l 514 431 l 528 417 l 528 333 "},"℗":{"ha":847,"x_min":0,"x_max":0,"o":"m 56 347 b 417 708 56 556 208 708 b 778 347 625 708 778 556 b 417 -14 778 139 625 -14 b 56 347 208 -14 56 153 m 111 347 b 417 42 111 167 236 42 b 722 347 597 42 722 167 b 417 653 722 528 597 653 b 111 347 236 653 111 528 m 556 444 b 472 514 556 500 528 514 l 347 514 l 333 500 l 333 389 l 347 375 l 472 375 b 556 444 528 375 556 389 m 347 319 l 333 306 l 333 139 l 319 125 l 278 125 l 264 139 l 264 556 l 278 569 l 486 569 b 625 444 569 569 625 528 b 486 319 625 361 569 319 "},"™":{"ha":847,"x_min":0,"x_max":0,"o":"m 28 972 l 292 972 l 306 958 l 306 931 l 292 917 l 208 917 l 194 903 l 194 500 l 181 486 l 139 486 l 125 500 l 125 903 l 111 917 l 28 917 l 14 931 l 14 958 m 569 486 l 556 500 l 458 806 l 444 806 l 444 500 l 431 486 l 389 486 l 375 500 l 375 958 l 389 972 l 458 972 l 472 958 l 583 597 l 597 597 l 708 958 l 722 972 l 792 972 l 806 958 l 806 500 l 792 486 l 750 486 l 736 500 l 736 806 l 722 806 l 625 500 l 611 486 "},"Ω":{"ha":847,"x_min":0,"x_max":0,"o":"m 194 139 b 42 556 42 292 42 319 b 417 986 42 847 181 986 b 792 556 653 986 792 847 b 639 139 792 306 792 292 l 639 125 l 764 125 l 778 111 l 778 14 l 764 0 l 500 0 l 486 14 l 486 125 l 500 153 b 653 542 639 292 653 319 b 417 861 653 764 583 861 b 181 542 250 861 181 764 b 333 153 181 319 194 292 l 347 125 l 347 14 l 333 0 l 69 0 l 56 14 l 56 111 l 69 125 l 194 125 "},"←":{"ha":847,"x_min":0,"x_max":0,"o":"m 347 542 l 361 528 l 361 514 l 264 417 l 264 403 l 750 403 l 764 389 l 764 319 l 750 306 l 264 306 l 264 292 l 361 194 l 361 181 l 347 167 l 264 167 l 236 181 l 69 347 l 69 361 l 236 528 l 264 542 "},"↑":{"ha":847,"x_min":0,"x_max":0,"o":"m 611 417 l 597 403 l 583 403 l 486 500 l 472 500 l 472 14 l 458 0 l 389 0 l 375 14 l 375 500 l 361 500 l 264 403 l 250 403 l 236 417 l 236 500 l 250 528 l 417 694 l 431 694 l 597 528 l 611 500 "},"→":{"ha":847,"x_min":0,"x_max":0,"o":"m 486 167 l 472 181 l 472 194 l 569 292 l 569 306 l 83 306 l 69 319 l 69 389 l 83 403 l 569 403 l 569 417 l 472 514 l 472 528 l 486 542 l 569 542 l 597 528 l 764 361 l 764 347 l 597 181 l 569 167 "},"↓":{"ha":847,"x_min":0,"x_max":0,"o":"m 611 194 l 597 167 l 431 0 l 417 0 l 250 167 l 236 194 l 236 278 l 250 292 l 264 292 l 361 194 l 375 194 l 375 681 l 389 694 l 458 694 l 472 681 l 472 194 l 486 194 l 583 292 l 597 292 l 611 278 "},"↔":{"ha":847,"x_min":0,"x_max":0,"o":"m 347 542 l 361 528 l 361 514 l 264 417 l 264 403 l 583 403 l 583 417 l 486 514 l 486 528 l 500 542 l 583 542 l 611 528 l 778 361 l 778 347 l 611 181 l 583 167 l 500 167 l 486 181 l 486 194 l 583 292 l 583 306 l 264 306 l 264 292 l 361 194 l 361 181 l 347 167 l 264 167 l 236 181 l 69 347 l 69 361 l 236 528 l 264 542 "},"↕":{"ha":847,"x_min":0,"x_max":0,"o":"m 611 417 l 597 403 l 583 403 l 486 500 l 472 500 l 472 194 l 486 194 l 583 292 l 597 292 l 611 278 l 611 194 l 597 167 l 431 0 l 417 0 l 250 167 l 236 194 l 236 278 l 250 292 l 264 292 l 361 194 l 375 194 l 375 500 l 361 500 l 264 403 l 250 403 l 236 417 l 236 500 l 250 528 l 417 694 l 431 694 l 597 528 l 611 500 "},"↖":{"ha":847,"x_min":0,"x_max":0,"o":"m 500 542 l 500 528 l 486 514 l 347 514 l 347 500 l 694 153 l 694 139 l 639 83 l 625 83 l 278 431 l 264 431 l 264 292 l 250 278 l 236 278 l 181 333 l 167 361 l 167 597 l 181 611 l 417 611 l 444 597 "},"↗":{"ha":847,"x_min":0,"x_max":0,"o":"m 417 597 l 444 611 l 681 611 l 694 597 l 694 361 l 681 333 l 625 278 l 611 278 l 597 292 l 597 431 l 583 431 l 236 83 l 222 83 l 167 139 l 167 153 l 514 500 l 514 514 l 375 514 l 361 528 l 361 542 "},"↘":{"ha":847,"x_min":0,"x_max":0,"o":"m 444 97 l 417 83 l 181 83 l 167 97 l 167 333 l 181 361 l 236 417 l 250 417 l 264 403 l 264 264 l 278 264 l 625 611 l 639 611 l 694 556 l 694 542 l 347 194 l 347 181 l 486 181 l 500 167 l 500 153 "},"↙":{"ha":847,"x_min":0,"x_max":0,"o":"m 361 153 l 361 167 l 375 181 l 514 181 l 514 194 l 167 542 l 167 556 l 222 611 l 236 611 l 583 264 l 597 264 l 597 403 l 611 417 l 625 417 l 681 361 l 694 333 l 694 97 l 681 83 l 444 83 l 417 97 "},"∂":{"ha":847,"x_min":0,"x_max":0,"o":"m 583 653 b 347 875 569 750 514 875 b 208 847 264 875 208 847 l 194 861 l 194 944 l 208 958 b 347 986 208 958 264 986 b 750 347 625 986 750 764 b 431 -14 750 111 625 -14 b 111 347 264 -14 111 97 b 417 708 111 569 236 708 b 569 653 528 708 569 653 m 611 347 b 431 583 611 514 542 583 b 250 347 319 583 250 514 b 431 111 250 167 333 111 b 611 347 542 111 611 181 "},"∆":{"ha":847,"x_min":0,"x_max":0,"o":"m 56 14 l 56 111 l 347 958 l 361 972 l 486 972 l 500 958 l 792 111 l 792 14 l 778 0 l 69 0 m 208 139 l 208 125 l 639 125 l 639 139 l 431 764 l 417 764 "},"∏":{"ha":847,"x_min":0,"x_max":0,"o":"m 653 -278 l 542 -278 l 528 -264 l 528 833 l 514 847 l 333 847 l 319 833 l 319 -264 l 306 -278 l 194 -278 l 181 -264 l 181 833 l 167 847 l 69 847 l 56 861 l 56 958 l 69 972 l 778 972 l 792 958 l 792 861 l 778 847 l 681 847 l 667 833 l 667 -264 "},"∑":{"ha":847,"x_min":0,"x_max":0,"o":"m 750 -56 l 750 -264 l 736 -278 l 69 -278 l 56 -264 l 56 -153 l 69 -125 l 403 347 l 403 361 l 83 819 l 69 847 l 69 958 l 83 972 l 722 972 l 736 958 l 736 750 l 722 736 l 611 736 l 597 750 l 597 833 l 583 847 l 236 847 l 236 833 l 514 431 l 528 403 l 528 306 l 514 278 l 222 -139 l 222 -153 l 597 -153 l 611 -139 l 611 -56 l 625 -42 l 736 -42 "},"−":{"ha":847,"x_min":0,"x_max":0,"o":"m 750 292 l 97 292 l 83 306 l 83 403 l 97 417 l 750 417 l 764 403 l 764 306 "},"∕":{"ha":847,"x_min":0,"x_max":0,"o":"m 181 125 l 153 111 l 139 111 l 125 125 l 125 222 l 667 847 l 694 861 l 708 861 l 722 847 l 722 750 "},"∙":{"ha":847,"x_min":0,"x_max":0,"o":"m 514 250 l 319 250 l 306 264 l 306 458 l 319 472 l 514 472 l 528 458 l 528 264 "},"√":{"ha":847,"x_min":0,"x_max":0,"o":"m 528 958 l 542 972 l 792 972 l 806 958 l 806 875 l 792 861 l 639 861 l 625 847 l 375 14 l 361 0 l 236 0 l 222 14 l 56 583 l 56 681 l 69 694 l 153 694 l 167 681 l 292 208 l 306 208 "},"∞":{"ha":847,"x_min":0,"x_max":0,"o":"m 417 319 b 194 194 361 264 292 194 b 14 361 83 194 14 264 b 194 528 14 458 83 528 b 417 403 292 528 361 458 l 431 403 b 653 528 486 458 556 528 b 833 361 764 528 833 458 b 653 194 833 264 764 194 b 431 319 556 194 486 264 m 194 486 b 69 361 111 486 69 431 b 194 236 69 292 111 236 b 389 347 278 236 333 292 l 389 375 b 194 486 333 431 278 486 m 653 486 b 458 375 569 486 514 431 l 458 347 b 653 236 514 292 569 236 b 778 361 736 236 778 292 b 653 486 778 431 736 486 "},"∫":{"ha":847,"x_min":0,"x_max":0,"o":"m 417 736 b 681 972 444 931 542 972 l 764 972 l 778 958 l 764 861 l 750 847 l 681 847 b 556 736 611 847 569 833 l 444 -42 b 181 -278 417 -236 319 -278 l 83 -278 l 69 -264 l 83 -167 l 97 -153 l 181 -153 b 306 -42 250 -153 292 -139 "},"≈":{"ha":847,"x_min":0,"x_max":0,"o":"m 361 458 b 250 528 319 500 292 528 b 181 417 194 528 181 486 l 167 403 l 83 403 l 69 417 b 278 667 69 556 125 667 b 472 569 375 667 431 611 b 583 500 514 528 542 500 b 653 611 639 500 653 542 l 667 625 l 750 625 l 764 611 b 556 361 764 472 708 361 b 361 458 458 361 403 417 m 361 125 b 250 194 319 167 292 194 b 181 83 194 194 181 153 l 167 69 l 83 69 l 69 83 b 278 333 69 222 125 333 b 472 236 375 333 431 278 b 583 167 514 194 542 167 b 653 278 639 167 653 208 l 667 292 l 750 292 l 764 278 b 556 28 764 139 708 28 b 361 125 458 28 403 83 "},"≠":{"ha":847,"x_min":0,"x_max":0,"o":"m 597 681 l 625 681 l 639 667 l 639 639 l 583 556 l 583 542 l 708 542 l 722 528 l 722 431 l 708 417 l 500 417 l 486 403 l 417 292 l 417 278 l 708 278 l 722 264 l 722 167 l 708 153 l 333 153 l 319 139 l 250 28 l 236 14 l 208 14 l 194 28 l 194 56 l 250 139 l 250 153 l 125 153 l 111 167 l 111 264 l 125 278 l 333 278 l 347 292 l 417 403 l 417 417 l 125 417 l 111 431 l 111 528 l 125 542 l 500 542 l 514 556 l 583 667 "},"≤":{"ha":847,"x_min":0,"x_max":0,"o":"m 722 0 l 125 0 l 111 14 l 111 111 l 125 125 l 722 125 l 736 111 l 736 14 m 125 528 l 681 694 l 722 694 l 736 681 l 736 597 l 722 583 l 278 458 l 278 431 l 722 306 l 736 292 l 736 208 l 722 194 l 681 194 l 125 361 l 111 375 l 111 514 "},"≥":{"ha":847,"x_min":0,"x_max":0,"o":"m 111 14 l 111 111 l 125 125 l 722 125 l 736 111 l 736 14 l 722 0 l 125 0 m 736 514 l 736 375 l 722 361 l 167 194 l 125 194 l 111 208 l 111 292 l 125 306 l 569 431 l 569 458 l 125 583 l 111 597 l 111 681 l 125 694 l 167 694 l 722 528 "},"◊":{"ha":847,"x_min":0,"x_max":0,"o":"m 750 444 l 486 14 l 472 0 l 375 0 l 361 14 l 97 444 l 97 528 l 361 958 l 375 972 l 472 972 l 486 958 l 750 528 m 236 472 l 417 167 l 431 167 l 611 472 l 611 500 l 431 806 l 417 806 l 236 500 "},"ﬀ":{"ha":847,"x_min":0,"x_max":0,"o":"m 847 569 l 681 569 l 667 556 l 667 14 l 653 0 l 542 0 l 528 14 l 528 556 l 514 569 l 278 569 l 264 556 l 264 14 l 250 0 l 139 0 l 125 14 l 125 556 l 111 569 l 0 569 l -14 583 l -14 681 l 0 694 l 111 694 l 125 708 l 125 792 b 319 972 125 917 222 972 l 417 972 l 431 958 l 431 861 l 417 847 l 319 847 b 264 792 292 847 264 833 l 264 708 l 278 694 l 514 694 l 528 708 l 528 792 b 722 972 528 917 625 972 l 833 972 l 847 958 l 847 861 l 833 847 l 722 847 b 667 792 694 847 667 833 l 667 708 l 681 694 l 847 694 l 861 681 l 861 583 "},"ﬁ":{"ha":847,"x_min":0,"x_max":0,"o":"m 764 0 l 653 0 l 639 14 l 639 556 l 625 569 l 292 569 l 278 556 l 278 14 l 264 0 l 153 0 l 139 14 l 139 556 l 125 569 l 14 569 l 0 583 l 0 681 l 14 694 l 125 694 l 139 708 l 139 792 b 333 972 139 917 236 972 l 486 972 l 500 958 l 500 861 l 486 847 l 333 847 b 278 792 306 847 278 833 l 278 708 l 292 694 l 764 694 l 778 681 l 778 14 m 778 806 l 611 806 l 597 819 l 597 958 l 611 972 l 778 972 l 792 958 l 792 819 "},"ﬂ":{"ha":847,"x_min":0,"x_max":0,"o":"m 764 0 l 653 0 l 639 14 l 639 556 l 625 569 l 292 569 l 278 556 l 278 14 l 264 0 l 153 0 l 139 14 l 139 556 l 125 569 l 14 569 l 0 583 l 0 681 l 14 694 l 125 694 l 139 708 l 139 792 b 333 972 139 917 236 972 l 486 972 l 500 958 l 500 861 l 486 847 l 333 847 b 278 792 306 847 278 833 l 278 708 l 292 694 l 625 694 l 639 708 l 639 958 l 653 972 l 764 972 l 778 958 l 778 14 "},"ﬃ":{"ha":1694,"x_min":0,"x_max":0,"o":"m 1653 0 l 1069 0 l 1056 14 l 1056 111 l 1069 125 l 1278 125 l 1292 139 l 1292 556 l 1278 569 l 889 569 l 875 556 l 875 14 l 861 0 l 750 0 l 736 14 l 736 556 l 722 569 l 389 569 l 375 556 l 375 14 l 361 0 l 250 0 l 236 14 l 236 556 l 222 569 l 42 569 l 28 583 l 28 681 l 42 694 l 222 694 l 236 708 l 236 792 b 431 972 236 917 333 972 l 597 972 l 611 958 l 611 861 l 597 847 l 431 847 b 375 792 403 847 375 833 l 375 708 l 389 694 l 722 694 l 736 708 l 736 792 b 931 972 736 917 833 972 l 1097 972 l 1111 958 l 1111 861 l 1097 847 l 931 847 b 875 792 903 847 875 833 l 875 708 l 889 694 l 1417 694 l 1431 681 l 1431 139 l 1444 125 l 1653 125 l 1667 111 l 1667 14 m 1431 806 l 1264 806 l 1250 819 l 1250 958 l 1264 972 l 1431 972 l 1444 958 l 1444 819 "},"ﬄ":{"ha":1694,"x_min":0,"x_max":0,"o":"m 1444 125 l 1653 125 l 1667 111 l 1667 14 l 1653 0 l 1069 0 l 1056 14 l 1056 111 l 1069 125 l 1278 125 l 1292 139 l 1292 556 l 1278 569 l 889 569 l 875 556 l 875 14 l 861 0 l 750 0 l 736 14 l 736 556 l 722 569 l 389 569 l 375 556 l 375 14 l 361 0 l 250 0 l 236 14 l 236 556 l 222 569 l 42 569 l 28 583 l 28 681 l 42 694 l 222 694 l 236 708 l 236 792 b 431 972 236 917 333 972 l 597 972 l 611 958 l 611 861 l 597 847 l 431 847 b 375 792 403 847 375 833 l 375 708 l 389 694 l 722 694 l 736 708 l 736 792 b 931 972 736 917 833 972 l 1097 972 l 1111 958 l 1111 861 l 1097 847 l 931 847 b 875 792 903 847 875 833 l 875 708 l 889 694 l 1278 694 l 1292 708 l 1292 958 l 1306 972 l 1417 972 l 1431 958 l 1431 139 "}}}
